<svg width="21" height="28" viewBox="0 0 21 28" fill="none" xmlns="http://www.w3.org/2000/svg">
<path d="M4.18833 0.769691C6.91833 -1.34198 9.88167 1.23636 10.5467 5.24969C11.0483 5.24969 11.5383 5.38969 11.9817 5.64636C12.5883 4.94636 13.125 3.98969 12.915 2.91636C12.425 0.408024 15.2367 -1.62198 17.9083 1.84302C20.02 4.57302 17.4417 7.53636 13.4167 8.20136C13.4167 8.70302 13.2883 9.20469 13.02 9.64802C13.72 10.243 14.6767 10.7797 15.75 10.5697C18.235 10.0797 20.2767 12.8797 16.8117 15.563C14.0817 17.6747 11.1183 15.0964 10.4533 11.083C9.95167 11.083 9.46167 10.9314 9.03 10.6747C8.42333 11.3747 7.875 12.343 8.085 13.4164C8.575 15.913 5.76333 17.9547 3.09167 14.4897C0.968333 11.748 3.55833 8.78469 7.58333 8.13136C7.58333 7.62969 7.735 7.13969 7.99167 6.69636C7.29167 6.10136 6.335 5.55302 5.25 5.76302C2.765 6.25302 0.723333 3.45302 4.18833 0.769691ZM2.33333 18.6664H4.66667C5.2855 18.6664 5.879 18.9122 6.31658 19.3498C6.75417 19.7874 7 20.3809 7 20.9997V27.9997H4.66667V25.6664H2.33333V27.9997H0V20.9997C0 20.3809 0.245833 19.7874 0.683417 19.3498C1.121 18.9122 1.71449 18.6664 2.33333 18.6664ZM2.33333 20.9997V23.333H4.66667V20.9997H2.33333ZM11.585 18.6664H14L10.5817 27.9997H8.16667L11.585 18.6664ZM17.5 18.6664H21V20.9997H17.5V25.6664H21V27.9997H17.5C16.8812 27.9997 16.2877 27.7539 15.8501 27.3163C15.4125 26.8787 15.1667 26.2852 15.1667 25.6664V20.9997C15.1667 20.3809 15.4125 19.7874 15.8501 19.3498C16.2877 18.9122 16.8812 18.6664 17.5 18.6664Z" fill="#4AAF57"/>
</svg>
