<svg width="29" height="28" viewBox="0 0 29 28" fill="none" xmlns="http://www.w3.org/2000/svg">
<path d="M19.9769 3.73141H16.0844C15.381 3.73365 15.4073 4.78197 16.0844 4.77581H19.9769V5.31173H16.0844C15.3849 5.30557 15.4107 6.35333 16.0844 6.35613H19.9769V6.90381H16.0844C15.3849 6.90381 15.4107 7.95101 16.0844 7.94821H19.9769V8.47013H16.0844C15.3995 8.47517 15.4107 9.52349 16.0844 9.52685H19.9769V10.0499H16.0844C15.3995 10.0477 15.3967 11.0943 16.0844 11.0943H19.9769V11.6162H16.0844C15.3995 11.6185 15.3967 12.6662 16.0844 12.6612H19.9769V13.196H16.0844C15.3995 13.1898 15.3967 14.2365 16.0844 14.2404H19.9769V14.7612H16.0844C15.3995 14.7606 15.4107 15.8095 16.0844 15.8061H19.9769V25.9752C19.9792 27.5247 22.3328 27.4967 22.3396 25.9752V2.17797C22.3328 1.47013 21.7516 0.57525 20.7951 0.57245H16.0844C15.381 0.57301 15.4073 1.62133 16.0844 1.61685L19.9769 1.62973V2.15053H16.0844C15.3821 2.14717 15.4084 3.19493 16.0844 3.19549H19.9769V3.73141ZM15.8167 21.7601C15.8144 19.9513 13.9396 18.0058 11.6996 19.2658V12.3476L10.2508 0.93757C10.2206 0.63573 9.96469 0.56461 9.79277 0.55957C9.61525 0.56461 9.25965 0.63573 9.22101 0.93757L7.77957 12.3476V19.2658C5.53957 18.0058 3.72517 19.9636 3.72461 21.746C3.72517 23.332 4.94597 24.6345 6.59797 24.6306C8.26229 24.6345 9.45957 23.1746 9.45957 21.746V14.5596H10.0196V21.746C10.0196 23.3454 11.2583 24.5293 12.6348 24.6043C12.6118 25.4813 12.898 26.7323 13.4367 27.2285C14.0684 27.8109 14.8204 27.066 14.5119 26.4596C14.214 25.8951 13.9216 25.5608 14.1591 24.3282C15.1514 23.869 15.8144 22.9025 15.8167 21.7601ZM6.66181 23.183C6.28419 23.183 5.92204 23.033 5.65503 22.766C5.38802 22.499 5.23801 22.1368 5.23801 21.7592C5.23801 21.3816 5.38802 21.0194 5.65503 20.7524C5.92204 20.4854 6.28419 20.3354 6.66181 20.3354C7.43797 20.3399 8.07021 20.9766 8.07581 21.7601C8.07421 22.1354 7.92501 22.4951 7.66043 22.7613C7.39585 23.0276 7.03714 23.179 6.66181 23.183ZM11.4616 21.7601C11.4629 21.3844 11.612 21.0243 11.8767 20.7577C12.1414 20.4911 12.5005 20.3394 12.8761 20.3354C13.2519 20.3388 13.6112 20.4903 13.876 20.7571C14.1407 21.0238 14.2896 21.3842 14.2901 21.7601C14.2895 22.1357 14.1407 22.496 13.8759 22.7624C13.6111 23.0289 13.2518 23.1801 12.8761 23.183C12.5006 23.1796 12.1415 23.0284 11.8767 22.762C11.6119 22.4956 11.4627 22.1356 11.4616 21.7601Z" fill="#7210FF"/>
</svg>
