<svg width="21" height="26" viewBox="0 0 21 26" fill="none" xmlns="http://www.w3.org/2000/svg">
<path d="M15.1667 11.8332H14V2.49984C14 1.2165 12.95 0.166504 11.6667 0.166504H9.33333C8.05 0.166504 7 1.2165 7 2.49984V11.8332H5.83333C2.61333 11.8332 0 14.4465 0 17.6665V25.8332H21V17.6665C21 14.4465 18.3867 11.8332 15.1667 11.8332ZM18.6667 23.4998H16.3333V19.9998C16.3333 19.3582 15.8083 18.8332 15.1667 18.8332C14.525 18.8332 14 19.3582 14 19.9998V23.4998H11.6667V19.9998C11.6667 19.3582 11.1417 18.8332 10.5 18.8332C9.85833 18.8332 9.33333 19.3582 9.33333 19.9998V23.4998H7V19.9998C7 19.3582 6.475 18.8332 5.83333 18.8332C5.19167 18.8332 4.66667 19.3582 4.66667 19.9998V23.4998H2.33333V17.6665C2.33333 15.7415 3.90833 14.1665 5.83333 14.1665H15.1667C17.0917 14.1665 18.6667 15.7415 18.6667 17.6665V23.4998Z" fill="#FF2D2D"/>
</svg>
