<svg width="23" height="18" viewBox="0 0 23 18" fill="none" xmlns="http://www.w3.org/2000/svg">
<path d="M21.2676 14.3784C21.6949 14.1833 22.057 13.8694 22.3109 13.4743C22.5649 13.0791 22.6998 12.6193 22.6998 12.1496V10.4514C22.6999 9.68009 22.4452 8.93034 21.9754 8.31868C21.5055 7.70702 20.8467 7.2677 20.1014 7.06901L17.1712 6.28781L15.0124 2.40001C14.7092 1.85423 14.2656 1.39948 13.7275 1.08291C13.1893 0.76634 12.5763 0.599473 11.952 0.599609H7.21861C6.48385 0.599579 5.76772 0.830787 5.17169 1.26047C4.57567 1.69014 4.12999 2.2965 3.89781 2.99361L2.7456 6.44881C2.0361 6.67292 1.41647 7.11731 0.976672 7.71748C0.536869 8.31764 0.299776 9.04235 0.299805 9.78641V12.1496C0.299805 13.1394 0.887805 13.992 1.732 14.3784C1.84412 15.1975 2.24257 15.9505 2.85674 16.5039C3.47092 17.0573 4.26118 17.3755 5.08749 17.402C5.9138 17.4285 6.72282 17.1616 7.3712 16.6487C8.01957 16.1357 8.46544 15.4098 8.6298 14.5996H14.3698C14.5342 15.4098 14.98 16.1357 15.6284 16.6487C16.2768 17.1616 17.0858 17.4285 17.9121 17.402C18.7384 17.3755 19.5287 17.0573 20.1429 16.5039C20.757 15.9505 21.1555 15.1975 21.2676 14.3784ZM7.21861 1.99961H8.69981V6.19961H4.30381L5.22501 3.43601C5.36438 3.01756 5.63195 2.65362 5.98979 2.3958C6.34763 2.13797 6.77756 1.99936 7.21861 1.99961ZM13.7874 3.08041L15.522 6.19961H10.0998V1.99961H11.952C12.3265 1.99973 12.6942 2.10001 13.0169 2.29004C13.3396 2.48008 13.6056 2.75296 13.7874 3.08041ZM3.0998 13.8996C3.0998 13.6238 3.15412 13.3508 3.25966 13.096C3.36519 12.8412 3.51988 12.6097 3.71488 12.4147C3.90988 12.2197 4.14139 12.065 4.39617 11.9595C4.65095 11.8539 4.92403 11.7996 5.19981 11.7996C5.47558 11.7996 5.74866 11.8539 6.00344 11.9595C6.25822 12.065 6.48973 12.2197 6.68473 12.4147C6.87973 12.6097 7.03442 12.8412 7.13995 13.096C7.24549 13.3508 7.29981 13.6238 7.29981 13.8996C7.29981 14.4566 7.07856 14.9907 6.68473 15.3845C6.2909 15.7784 5.75676 15.9996 5.19981 15.9996C4.64285 15.9996 4.10871 15.7784 3.71488 15.3845C3.32105 14.9907 3.0998 14.4566 3.0998 13.8996ZM15.6998 13.8996C15.6998 13.3427 15.9211 12.8085 16.3149 12.4147C16.7087 12.0209 17.2429 11.7996 17.7998 11.7996C18.3568 11.7996 18.8909 12.0209 19.2847 12.4147C19.6786 12.8085 19.8998 13.3427 19.8998 13.8996C19.8998 14.4566 19.6786 14.9907 19.2847 15.3845C18.8909 15.7784 18.3568 15.9996 17.7998 15.9996C17.2429 15.9996 16.7087 15.7784 16.3149 15.3845C15.9211 14.9907 15.6998 14.4566 15.6998 13.8996Z" fill="#1A96F0"/>
</svg>
