<svg width="25" height="21" viewBox="0 0 25 21" fill="none" xmlns="http://www.w3.org/2000/svg">
<path d="M20.8413 5.33317C20.6377 4.98052 20.3454 4.68728 19.9934 4.48261C19.6413 4.27794 19.2419 4.16896 18.8347 4.1665H15.9997V1.83317C15.9997 1.52375 15.8768 1.22701 15.658 1.00821C15.4392 0.78942 15.1424 0.666504 14.833 0.666504H3.16634C2.5475 0.666504 1.95401 0.912336 1.51643 1.34992C1.07884 1.78751 0.833008 2.381 0.833008 2.99984V14.6665C0.833428 15.0757 0.941441 15.4776 1.14621 15.8318C1.35098 16.1861 1.64531 16.4802 1.99967 16.6848C1.9579 17.7678 2.34805 18.823 3.08429 19.6183C3.82052 20.4136 4.84254 20.8839 5.92551 20.9257C7.00847 20.9674 8.06368 20.5773 8.85899 19.8411C9.6543 19.1048 10.1246 18.0828 10.1663 16.9998H13.783C13.912 17.976 14.3914 18.872 15.1318 19.521C15.8723 20.1701 16.8234 20.5279 17.808 20.5279C18.7926 20.5279 19.7437 20.1701 20.4842 19.521C21.2246 18.872 21.704 17.976 21.833 16.9998C22.4518 16.9998 23.0453 16.754 23.4829 16.3164C23.9205 15.8788 24.1663 15.2853 24.1663 14.6665V11.1665C24.1645 10.9537 24.1083 10.7448 24.003 10.5598L20.8413 5.33317ZM15.9997 6.49984H18.8347L20.9347 9.99984H15.9997V6.49984ZM6.08301 18.1665C5.73689 18.1665 5.39855 18.0639 5.11076 17.8716C4.82297 17.6793 4.59867 17.406 4.46622 17.0862C4.33377 16.7664 4.29911 16.4146 4.36663 16.0751C4.43416 15.7356 4.60083 15.4238 4.84557 15.1791C5.09031 14.9343 5.40213 14.7677 5.7416 14.7001C6.08107 14.6326 6.43293 14.6673 6.7527 14.7997C7.07247 14.9322 7.34579 15.1565 7.53808 15.4443C7.73037 15.732 7.83301 16.0704 7.83301 16.4165C7.83301 16.8806 7.64863 17.3258 7.32044 17.6539C6.99226 17.9821 6.54714 18.1665 6.08301 18.1665ZM17.7497 18.1665C17.4036 18.1665 17.0652 18.0639 16.7774 17.8716C16.4896 17.6793 16.2653 17.406 16.1329 17.0862C16.0004 16.7664 15.9658 16.4146 16.0333 16.0751C16.1008 15.7356 16.2675 15.4238 16.5122 15.1791C16.757 14.9343 17.0688 14.7677 17.4083 14.7001C17.7477 14.6326 18.0996 14.6673 18.4194 14.7997C18.7391 14.9322 19.0125 15.1565 19.2047 15.4443C19.397 15.732 19.4997 16.0704 19.4997 16.4165C19.4997 16.8806 19.3153 17.3258 18.9871 17.6539C18.6589 17.9821 18.2138 18.1665 17.7497 18.1665Z" fill="#00BCD3"/>
</svg>
