<svg width="20" height="15" viewBox="0 0 20 15" fill="none" xmlns="http://www.w3.org/2000/svg">
<path d="M2.01677 8.09427C1.90328 7.91457 1.84654 7.82472 1.81477 7.68614C1.79091 7.58204 1.79091 7.41788 1.81477 7.31378C1.84654 7.17519 1.90328 7.08534 2.01677 6.90564C2.95461 5.42066 5.74617 1.66663 10.0003 1.66663C14.2545 1.66663 17.0461 5.42066 17.9839 6.90564C18.0974 7.08534 18.1541 7.17519 18.1859 7.31378C18.2098 7.41788 18.2098 7.58204 18.1859 7.68614C18.1541 7.82472 18.0974 7.91457 17.9839 8.09427C17.0461 9.57926 14.2545 13.3333 10.0003 13.3333C5.74617 13.3333 2.95461 9.57926 2.01677 8.09427Z" stroke="black" stroke-width="2" stroke-linecap="round" stroke-linejoin="round"/>
<path d="M10.0003 9.99996C11.381 9.99996 12.5003 8.88067 12.5003 7.49996C12.5003 6.11925 11.381 4.99996 10.0003 4.99996C8.61962 4.99996 7.50034 6.11925 7.50034 7.49996C7.50034 8.88067 8.61962 9.99996 10.0003 9.99996Z" stroke="black" stroke-width="2" stroke-linecap="round" stroke-linejoin="round"/>
</svg>
