<svg width="25" height="20" viewBox="0 0 25 20" fill="none" xmlns="http://www.w3.org/2000/svg">
<path d="M1.99967 0.742188H7.83301C8.14243 0.742188 8.43917 0.865104 8.65797 1.0839C8.87676 1.30269 8.99967 1.59943 8.99967 1.90885V18.2422C8.99967 18.5516 8.87676 18.8484 8.65797 19.0671C8.43917 19.2859 8.14243 19.4089 7.83301 19.4089H1.99967C1.69026 19.4089 1.39351 19.2859 1.17472 19.0671C0.955924 18.8484 0.833008 18.5516 0.833008 18.2422V1.90885C0.833008 1.59943 0.955924 1.30269 1.17472 1.0839C1.39351 0.865104 1.69026 0.742188 1.99967 0.742188ZM1.99967 13.5755V15.9089H4.33301V13.5755H1.99967ZM12.4997 4.24219H21.833C22.4518 4.24219 23.0453 4.48802 23.4829 4.9256C23.9205 5.36319 24.1663 5.95668 24.1663 6.57552V13.5755C24.1663 14.1944 23.9205 14.7879 23.4829 15.2254C23.0453 15.663 22.4518 15.9089 21.833 15.9089H12.4997C11.8808 15.9089 11.2873 15.663 10.8498 15.2254C10.4122 14.7879 10.1663 14.1944 10.1663 13.5755V6.57552C10.1663 5.95668 10.4122 5.36319 10.8498 4.9256C11.2873 4.48802 11.8808 4.24219 12.4997 4.24219ZM14.833 17.0755H19.4997C19.8091 17.0755 20.1058 17.1984 20.3246 17.4172C20.5434 17.636 20.6663 17.9328 20.6663 18.2422C20.6663 18.5516 20.5434 18.8484 20.3246 19.0671C20.1058 19.2859 19.8091 19.4089 19.4997 19.4089H14.833C14.5236 19.4089 14.2268 19.2859 14.008 19.0671C13.7893 18.8484 13.6663 18.5516 13.6663 18.2422C13.6663 17.9328 13.7893 17.636 14.008 17.4172C14.2268 17.1984 14.5236 17.0755 14.833 17.0755Z" fill="#FF981F"/>
</svg>
