<svg width="24" height="18" viewBox="0 0 24 18" fill="none" xmlns="http://www.w3.org/2000/svg">
<path d="M0 11.998H24V17.998H0V11.998Z" fill="#1EB53A"/>
<path d="M0 0.00195312H24V6.00195H0V0.00195312Z" fill="#0099B5"/>
<path d="M0 5.75977H24V12.2398H0V5.75977Z" fill="#CE1126"/>
<path d="M0 6.11914H24V11.8791H0V6.11914Z" fill="white"/>
<path d="M5.04086 5.0407C6.23379 5.0407 7.20086 4.07364 7.20086 2.8807C7.20086 1.68777 6.23379 0.720703 5.04086 0.720703C3.84792 0.720703 2.88086 1.68777 2.88086 2.8807C2.88086 4.07364 3.84792 5.0407 5.04086 5.0407Z" fill="white"/>
<path d="M5.76059 5.0407C6.95352 5.0407 7.92059 4.07364 7.92059 2.8807C7.92059 1.68777 6.95352 0.720703 5.76059 0.720703C4.56765 0.720703 3.60059 1.68777 3.60059 2.8807C3.60059 4.07364 4.56765 5.0407 5.76059 5.0407Z" fill="#0099B5"/>
<path d="M9.79012 4.17969L9.65332 4.59009L9.86212 4.66209" fill="white"/>
<path d="M9.79093 4.17969L9.92773 4.59009L9.71893 4.66209" fill="white"/>
<path d="M10.2024 4.48557L9.76984 4.48229L9.76589 4.70312" fill="white"/>
<path d="M10.2028 4.48318L9.8548 4.7401L9.7218 4.56377" fill="white"/>
<path d="M9.38114 4.48122L9.72918 4.73815L9.86218 4.56182" fill="white"/>
<path d="M9.38155 4.48362L9.81414 4.48034L9.8181 4.70117" fill="white"/>
<path d="M10.0456 4.96127L9.91502 4.54884L9.70378 4.61332" fill="white"/>
<path d="M10.0452 4.96256L9.69334 4.71095L9.81995 4.52997" fill="white"/>
<path d="M9.53874 4.96451L9.89064 4.7129L9.76404 4.53192" fill="white"/>
<path d="M9.53841 4.96322L9.66896 4.55079L9.8802 4.61527" fill="white"/>
<path d="M9.79012 2.46875L9.65332 2.87915L9.86212 2.95115" fill="white"/>
<path d="M9.79093 2.46875L9.92773 2.87915L9.71893 2.95115" fill="white"/>
<path d="M10.2024 2.76487L9.76984 2.76159L9.76589 2.98242" fill="white"/>
<path d="M10.2028 2.76247L9.8548 3.0194L9.7218 2.84307" fill="white"/>
<path d="M9.38114 2.75466L9.72918 3.01159L9.86218 2.83525" fill="white"/>
<path d="M9.38155 2.75706L9.81414 2.75377L9.8181 2.9746" fill="white"/>
<path d="M10.0456 3.24447L9.91502 2.83204L9.70378 2.89652" fill="white"/>
<path d="M10.0452 3.24576L9.69334 2.99415L9.81995 2.81317" fill="white"/>
<path d="M9.53874 3.23795L9.89064 2.98634L9.76404 2.80536" fill="white"/>
<path d="M9.53841 3.23666L9.66896 2.82423L9.8802 2.88871" fill="white"/>
<path d="M9.79012 0.738281L9.65332 1.14868L9.86212 1.22068" fill="white"/>
<path d="M9.79093 0.738281L9.92773 1.14868L9.71893 1.22068" fill="white"/>
<path d="M10.2024 1.0344L9.76984 1.03112L9.76589 1.25195" fill="white"/>
<path d="M10.2028 1.032L9.8548 1.28893L9.7218 1.1126" fill="white"/>
<path d="M9.38114 1.02419L9.72918 1.28112L9.86218 1.10479" fill="white"/>
<path d="M9.38155 1.02659L9.81414 1.0233L9.8181 1.24413" fill="white"/>
<path d="M10.0456 1.5101L9.91502 1.09767L9.70378 1.16215" fill="white"/>
<path d="M10.0452 1.51139L9.69334 1.25978L9.81995 1.0788" fill="white"/>
<path d="M9.53874 1.50358L9.89064 1.25196L9.76404 1.07098" fill="white"/>
<path d="M9.53841 1.50228L9.66896 1.08985L9.8802 1.15433" fill="white"/>
<path d="M11.5225 4.17969L11.3857 4.59009L11.5945 4.66209" fill="white"/>
<path d="M11.5234 4.17969L11.6602 4.59009L11.4514 4.66209" fill="white"/>
<path d="M11.9329 4.48557L11.5003 4.48229L11.4964 4.70312" fill="white"/>
<path d="M11.9333 4.48318L11.5853 4.7401L11.4523 4.56377" fill="white"/>
<path d="M11.1126 4.48122L11.4606 4.73815L11.5936 4.56182" fill="white"/>
<path d="M11.113 4.48362L11.5456 4.48034L11.5495 4.70117" fill="white"/>
<path d="M11.777 4.96127L11.6465 4.54884L11.4352 4.61332" fill="white"/>
<path d="M11.7767 4.96256L11.4248 4.71095L11.5514 4.52997" fill="white"/>
<path d="M11.2692 4.95865L11.6211 4.70704L11.4945 4.52606" fill="white"/>
<path d="M11.2689 4.95736L11.3994 4.54493L11.6107 4.60941" fill="white"/>
<path d="M11.5225 2.46875L11.3857 2.87915L11.5945 2.95115" fill="white"/>
<path d="M11.5234 2.46875L11.6602 2.87915L11.4514 2.95115" fill="white"/>
<path d="M11.9329 2.76487L11.5003 2.76159L11.4964 2.98242" fill="white"/>
<path d="M11.9333 2.76247L11.5853 3.0194L11.4523 2.84307" fill="white"/>
<path d="M11.1126 2.75466L11.4606 3.01159L11.5936 2.83525" fill="white"/>
<path d="M11.113 2.75706L11.5456 2.75377L11.5495 2.9746" fill="white"/>
<path d="M11.777 3.24057L11.6465 2.82814L11.4352 2.89262" fill="white"/>
<path d="M11.7767 3.24186L11.4248 2.99025L11.5514 2.80927" fill="white"/>
<path d="M11.2692 3.23404L11.6211 2.98243L11.4945 2.80145" fill="white"/>
<path d="M11.2689 3.23275L11.3994 2.82032L11.6107 2.8848" fill="white"/>
<path d="M11.5225 0.738281L11.3857 1.14868L11.5945 1.22068" fill="white"/>
<path d="M11.5234 0.738281L11.6602 1.14868L11.4514 1.22068" fill="white"/>
<path d="M11.9329 1.0344L11.5003 1.03112L11.4964 1.25195" fill="white"/>
<path d="M11.9333 1.032L11.5853 1.28893L11.4523 1.1126" fill="white"/>
<path d="M11.1126 1.02419L11.4606 1.28112L11.5936 1.10479" fill="white"/>
<path d="M11.113 1.02659L11.5456 1.0233L11.5495 1.24413" fill="white"/>
<path d="M11.777 1.5101L11.6465 1.09767L11.4352 1.16215" fill="white"/>
<path d="M11.7767 1.51139L11.4248 1.25978L11.5514 1.0788" fill="white"/>
<path d="M11.2692 1.50358L11.6211 1.25196L11.4945 1.07098" fill="white"/>
<path d="M11.2689 1.50228L11.3994 1.08985L11.6107 1.15433" fill="white"/>
<path d="M13.2452 4.17969L13.1084 4.59009L13.3172 4.66209" fill="white"/>
<path d="M13.246 4.17969L13.3828 4.59009L13.174 4.66209" fill="white"/>
<path d="M13.6565 4.48557L13.2239 4.48229L13.22 4.70312" fill="white"/>
<path d="M13.6569 4.48318L13.3089 4.7401L13.1759 4.56377" fill="white"/>
<path d="M12.8352 4.48122L13.1833 4.73815L13.3163 4.56182" fill="white"/>
<path d="M12.8357 4.48362L13.2682 4.48034L13.2722 4.70117" fill="white"/>
<path d="M13.4977 4.96127L13.3672 4.54884L13.1559 4.61332" fill="white"/>
<path d="M13.4974 4.96256L13.1455 4.71095L13.2721 4.52997" fill="white"/>
<path d="M12.9909 4.95865L13.3428 4.70704L13.2162 4.52606" fill="white"/>
<path d="M12.9906 4.95736L13.1211 4.54493L13.3324 4.60941" fill="white"/>
<path d="M13.2452 2.46875L13.1084 2.87915L13.3172 2.95115" fill="white"/>
<path d="M13.246 2.46875L13.3828 2.87915L13.174 2.95115" fill="white"/>
<path d="M13.6565 2.76487L13.2239 2.76159L13.22 2.98242" fill="white"/>
<path d="M13.6569 2.76247L13.3089 3.0194L13.1759 2.84307" fill="white"/>
<path d="M12.8352 2.75466L13.1833 3.01159L13.3163 2.83525" fill="white"/>
<path d="M12.8357 2.75706L13.2682 2.75377L13.2722 2.9746" fill="white"/>
<path d="M13.4977 3.24057L13.3672 2.82814L13.1559 2.89262" fill="white"/>
<path d="M13.4974 3.24186L13.1455 2.99025L13.2721 2.80927" fill="white"/>
<path d="M12.9909 3.23404L13.3428 2.98243L13.2162 2.80145" fill="white"/>
<path d="M12.9906 3.23275L13.1211 2.82032L13.3324 2.8848" fill="white"/>
<path d="M13.2452 0.738281L13.1084 1.14868L13.3172 1.22068" fill="white"/>
<path d="M13.246 0.738281L13.3828 1.14868L13.174 1.22068" fill="white"/>
<path d="M13.6565 1.0344L13.2239 1.03112L13.22 1.25195" fill="white"/>
<path d="M13.6569 1.032L13.3089 1.28893L13.1759 1.1126" fill="white"/>
<path d="M12.8352 1.02419L13.1833 1.28112L13.3163 1.10479" fill="white"/>
<path d="M12.8357 1.02659L13.2682 1.0233L13.2722 1.24413" fill="white"/>
<path d="M13.4977 1.5101L13.3672 1.09767L13.1559 1.16215" fill="white"/>
<path d="M13.4974 1.51139L13.1455 1.25978L13.2721 1.0788" fill="white"/>
<path d="M12.9909 1.50358L13.3428 1.25196L13.2162 1.07098" fill="white"/>
<path d="M12.9906 1.50228L13.1211 1.08985L13.3324 1.15433" fill="white"/>
<path d="M6.337 4.16211L6.2002 4.57251L6.409 4.64451" fill="white"/>
<path d="M6.33781 4.16211L6.47461 4.57251L6.26581 4.64451" fill="white"/>
<path d="M6.74735 4.468L6.31476 4.46471L6.31081 4.68554" fill="white"/>
<path d="M6.74777 4.4656L6.39973 4.72252L6.26673 4.54619" fill="white"/>
<path d="M5.92704 4.47146L6.27508 4.72838L6.40808 4.55205" fill="white"/>
<path d="M5.92745 4.47385L6.36004 4.47057L6.36399 4.6914" fill="white"/>
<path d="M6.59147 4.9515L6.46092 4.53907L6.24968 4.60355" fill="white"/>
<path d="M6.59114 4.95279L6.23924 4.70118L6.36584 4.5202" fill="white"/>
<path d="M6.08366 4.94498L6.43556 4.69337L6.30896 4.51239" fill="white"/>
<path d="M6.08333 4.94369L6.21388 4.53126L6.42513 4.59574" fill="white"/>
<path d="M8.06356 4.16211L7.92676 4.57251L8.13556 4.64451" fill="white"/>
<path d="M8.06437 4.16211L8.20117 4.57251L7.99237 4.64451" fill="white"/>
<path d="M8.47489 4.468L8.0423 4.46471L8.03835 4.68554" fill="white"/>
<path d="M8.4753 4.4656L8.12726 4.72252L7.99427 4.54619" fill="white"/>
<path d="M7.65067 4.47146L7.99871 4.72838L8.13171 4.55205" fill="white"/>
<path d="M7.65109 4.47385L8.08367 4.47057L8.08763 4.6914" fill="white"/>
<path d="M8.31511 4.9515L8.18455 4.53907L7.97331 4.60355" fill="white"/>
<path d="M8.31478 4.95279L7.96287 4.70118L8.08948 4.5202" fill="white"/>
<path d="M7.8073 4.94498L8.1592 4.69337L8.03259 4.51239" fill="white"/>
<path d="M7.80696 4.94369L7.93752 4.53126L8.14876 4.59574" fill="white"/>
<path d="M8.06356 2.4668L7.92676 2.8772L8.13556 2.9492" fill="white"/>
<path d="M8.06437 2.4668L8.20117 2.8772L7.99237 2.9492" fill="white"/>
<path d="M8.47489 2.76292L8.0423 2.75963L8.03835 2.98046" fill="white"/>
<path d="M8.4753 2.76052L8.12726 3.01745L7.99427 2.84111" fill="white"/>
<path d="M7.65067 2.75271L7.99871 3.00963L8.13171 2.8333" fill="white"/>
<path d="M7.65109 2.7551L8.08367 2.75182L8.08763 2.97265" fill="white"/>
<path d="M8.31511 3.23861L8.18455 2.82618L7.97331 2.89066" fill="white"/>
<path d="M8.31478 3.2399L7.96287 2.98829L8.08948 2.80731" fill="white"/>
<path d="M7.8073 3.23209L8.1592 2.98048L8.03259 2.7995" fill="white"/>
<path d="M7.80696 3.2308L7.93752 2.81837L8.14876 2.88285" fill="white"/>
</svg>
