<svg width="18" height="18" viewBox="0 0 18 18" fill="none" xmlns="http://www.w3.org/2000/svg">
<path fill-rule="evenodd" clip-rule="evenodd" d="M12.5852 1.29102H5.37518C2.86518 1.29102 1.29102 3.06935 1.29102 5.58602V12.3743C1.29102 14.891 2.85852 16.6694 5.37518 16.6694H12.581C15.1018 16.6694 16.6685 14.891 16.6685 12.3743V5.58602C16.6718 3.06935 15.1043 1.29102 12.5852 1.29102Z" stroke="#9E9E9E" stroke-width="1.5" stroke-linecap="round" stroke-linejoin="round"/>
<path fill-rule="evenodd" clip-rule="evenodd" d="M7.91846 6.31958C7.91846 7.16958 7.23013 7.85792 6.38013 7.85792C5.53096 7.85792 4.8418 7.16958 4.8418 6.31958C4.8418 5.46958 5.53096 4.78125 6.38013 4.78125C7.2293 4.78208 7.91763 5.47042 7.91846 6.31958Z" stroke="#9E9E9E" stroke-width="1.5" stroke-linecap="round" stroke-linejoin="round"/>
<path d="M16.6725 11.4592C15.9033 10.6675 14.4242 9.06836 12.8158 9.06836C11.2067 9.06836 10.2792 12.5959 8.73167 12.5959C7.18417 12.5959 5.77833 11.0009 4.53833 12.0234C3.29833 13.045 2.125 15.1342 2.125 15.1342" stroke="#9E9E9E" stroke-width="1.5" stroke-linecap="round" stroke-linejoin="round"/>
</svg>
