<svg width="14" height="14" viewBox="0 0 14 14" fill="none" xmlns="http://www.w3.org/2000/svg">
<path fill-rule="evenodd" clip-rule="evenodd" d="M0.333008 9.72065V4.27398C0.333008 1.92065 1.84701 0.333984 4.10634 0.333984H9.88634C12.1463 0.333984 13.6663 1.92065 13.6663 4.27398V9.72065C13.6663 12.0807 12.1463 13.6673 9.88634 13.6673H4.10634C1.84701 13.6673 0.333008 12.0807 0.333008 9.72065ZM7.49967 8.51398V4.28065C7.49967 4.00065 7.27301 3.78065 6.99967 3.78065C6.71967 3.78065 6.49967 4.00065 6.49967 4.28065V8.51398L4.85301 6.86065C4.75968 6.76732 4.62634 6.71398 4.49967 6.71398C4.37367 6.71398 4.24634 6.76732 4.14634 6.86065C3.95301 7.05398 3.95301 7.37398 4.14634 7.56732L6.64634 10.0807C6.83301 10.2673 7.16634 10.2673 7.35301 10.0807L9.85301 7.56732C10.0463 7.37398 10.0463 7.05398 9.85301 6.86065C9.65301 6.66732 9.33967 6.66732 9.13967 6.86065L7.49967 8.51398Z" fill="#246BFD"/>
</svg>
