<svg width="23" height="27" viewBox="0 0 23 27" fill="none" xmlns="http://www.w3.org/2000/svg">
<path d="M0.860352 6.16006V25.0545C0.860352 25.8777 1.55307 26.8801 2.40595 26.8801H21.008C21.8587 26.8801 22.7003 25.8777 22.7003 25.0545V6.16006H0.860352ZM11.7579 21.1546C8.47635 21.1546 5.81579 18.582 5.81579 15.4073C5.81579 12.2327 8.47635 9.66006 11.7579 9.66006C15.0395 9.66006 17.7001 12.2327 17.7001 15.4073C17.7001 18.5825 15.0395 21.1546 11.7579 21.1546ZM21.008 0.560059H2.40595C1.55307 0.560059 0.860352 1.13854 0.860352 1.96286V5.04006H22.7003V1.96286C22.7003 1.13854 21.8587 0.560059 21.008 0.560059ZM8.14035 3.92006H1.98035V1.68006H8.14035V3.92006ZM18.8621 3.76326C18.1627 3.76326 17.5976 3.21502 17.5976 2.53798C17.5976 1.86206 18.1627 1.31382 18.8621 1.31382C19.5616 1.31382 20.1283 1.86206 20.1283 2.53798C20.1277 3.21446 19.5616 3.76326 18.8621 3.76326Z" fill="#FFC02D"/>
</svg>
