<svg width="25" height="24" viewBox="0 0 25 24" fill="none" xmlns="http://www.w3.org/2000/svg">
<path fill-rule="evenodd" clip-rule="evenodd" d="M0.833008 11.9997C0.833008 5.55967 6.04801 0.333008 12.4997 0.333008C18.9397 0.333008 24.1663 5.55967 24.1663 11.9997C24.1663 18.4397 18.9397 23.6663 12.4997 23.6663C6.04801 23.6663 0.833008 18.4397 0.833008 11.9997ZM7.27301 13.3997C6.50301 13.3997 5.87301 12.7697 5.87301 11.9997C5.87301 11.2297 6.50301 10.6008 7.27301 10.6008C8.04301 10.6008 8.66134 11.2297 8.66134 11.9997C8.66134 12.7697 8.04301 13.3997 7.27301 13.3997ZM11.0997 11.9997C11.0997 12.7697 11.7297 13.3997 12.4997 13.3997C13.2697 13.3997 13.888 12.7697 13.888 11.9997C13.888 11.2297 13.2697 10.6008 12.4997 10.6008C11.7297 10.6008 11.0997 11.2297 11.0997 11.9997ZM16.3263 11.9997C16.3263 12.7697 16.9447 13.3997 17.7263 13.3997C18.4963 13.3997 19.1147 12.7697 19.1147 11.9997C19.1147 11.2297 18.4963 10.6008 17.7263 10.6008C16.9447 10.6008 16.3263 11.2297 16.3263 11.9997Z" fill="#FF2D2D"/>
</svg>
