<svg width="14" height="14" viewBox="0 0 14 14" fill="none" xmlns="http://www.w3.org/2000/svg">
<path fill-rule="evenodd" clip-rule="evenodd" d="M4.11301 0.332031H9.89301C12.153 0.332031 13.6663 1.9187 13.6663 4.2787V9.72603C13.6663 12.0794 12.153 13.6654 9.89301 13.6654H4.11301C1.85301 13.6654 0.333008 12.0794 0.333008 9.72603V4.2787C0.333008 1.9187 1.85301 0.332031 4.11301 0.332031ZM9.00634 8.9987C9.23301 8.7727 9.23301 8.40603 9.00634 8.17936L7.81967 6.9927L9.00634 5.80536C9.23301 5.57936 9.23301 5.20603 9.00634 4.97936C8.77967 4.75203 8.41301 4.75203 8.17967 4.97936L6.99967 6.16536L5.81301 4.97936C5.57967 4.75203 5.21301 4.75203 4.98634 4.97936C4.75967 5.20603 4.75967 5.57936 4.98634 5.80536L6.17301 6.9927L4.98634 8.1727C4.75967 8.40603 4.75967 8.7727 4.98634 8.9987C5.09967 9.11203 5.25301 9.1727 5.39967 9.1727C5.55301 9.1727 5.69967 9.11203 5.81301 8.9987L6.99967 7.81936L8.18634 8.9987C8.29967 9.11936 8.44634 9.1727 8.59301 9.1727C8.74634 9.1727 8.89301 9.11203 9.00634 8.9987Z" fill="#F75555"/>
</svg>
