<svg width="380" height="239" viewBox="0 0 380 239" fill="none" xmlns="http://www.w3.org/2000/svg">
<g clip-path="url(#clip0_583_12091)">
<rect width="380" height="239" rx="24" fill="#FF2D2D"/>
<g opacity="0.5">
<path opacity="0.1" d="M242.831 -32.3613L371.137 44.009V173.137L242.831 96.0753V-32.3613Z" fill="#FAFAFA"/>
<path opacity="0.2" d="M498.993 -32.2832L370.691 44.0071V173L498.993 96.0188V-32.2832Z" fill="#FAFAFA"/>
<path opacity="0.3" d="M242.831 -31.938L371.137 -109L499.442 -31.938V-31.3616L371.137 45.7004L242.831 -31.3616V-31.938Z" fill="#FAFAFA"/>
<path opacity="0.1" d="M-119 40.8926L9.30562 117.263V246.391L-119 169.329V40.8926Z" fill="#FAFAFA"/>
<path opacity="0.2" d="M137.162 40.9707L8.86011 117.261V246.254L137.162 169.273V40.9707Z" fill="#FAFAFA"/>
<path opacity="0.3" d="M-119 41.3159L9.30562 -35.7461L137.611 41.3159V41.8923L9.30562 118.954L-119 41.8923V41.3159Z" fill="#FAFAFA"/>
<path opacity="0.1" d="M189.111 -0.238281L242.609 31.6047V85.4454L189.111 53.314V-0.238281Z" fill="#FAFAFA"/>
<path opacity="0.2" d="M295.919 -0.205078L242.423 31.6045V85.3888L295.919 53.2911V-0.205078Z" fill="#FAFAFA"/>
<path opacity="0.3" d="M189.111 -0.0619698L242.609 -32.1934L296.107 -0.0619698V0.178352L242.609 32.3097L189.111 0.178352V-0.0619698Z" fill="#FAFAFA"/>
<path opacity="0.1" d="M233.951 205.316L287.449 237.159V291L233.951 258.869V205.316Z" fill="#FAFAFA"/>
<path opacity="0.2" d="M340.759 205.35L287.263 237.159V290.943L340.759 258.846V205.35Z" fill="#FAFAFA"/>
<path opacity="0.3" d="M233.951 205.493L287.449 173.361L340.947 205.493V205.733L287.449 237.864L233.951 205.733V205.493Z" fill="#FAFAFA"/>
</g>
<path fill-rule="evenodd" clip-rule="evenodd" d="M314.896 35.8534C314.541 36.3939 314.362 37.0312 314.383 37.6777L314.381 37.6751C314.381 39.5956 315.597 40.5562 317.163 40.5619C317.744 40.595 318.324 40.4909 318.856 40.2572C319.389 40.0237 319.859 39.6671 320.228 39.2174C320.505 39.6904 320.867 40.1086 321.295 40.451C321.365 40.4886 321.443 40.5048 321.522 40.4971C321.6 40.4894 321.675 40.4582 321.735 40.4078L321.738 40.4108C322.111 40.0855 322.784 39.4972 323.162 39.1842C323.194 39.1527 323.22 39.115 323.239 39.0733C323.257 39.0317 323.267 38.9868 323.267 38.9414C323.268 38.8959 323.26 38.8506 323.243 38.8084C323.227 38.7661 323.201 38.7276 323.17 38.6949C322.73 38.2323 322.482 37.6204 322.474 36.9821V34.1013C322.474 34.0068 322.474 33.9129 322.475 33.8196V33.8195V33.8194V33.8193L322.475 33.8172C322.481 32.7092 322.486 31.6965 321.653 30.922C320.86 30.2903 319.866 29.9643 318.853 30.0031C317.084 30.0031 315.106 30.6563 314.695 32.8296C314.686 32.8735 314.686 32.9188 314.695 32.9626C314.705 33.0064 314.723 33.0476 314.748 33.0841C314.774 33.1205 314.808 33.1514 314.846 33.1744C314.884 33.1974 314.927 33.2118 314.972 33.2176L316.772 33.4098C316.856 33.3961 316.933 33.3558 316.992 33.2949C317.05 33.2339 317.087 33.1554 317.098 33.0715C317.17 32.7367 317.362 32.4399 317.636 32.2359C317.911 32.0319 318.251 31.9349 318.592 31.9629C318.791 31.9533 318.99 31.9921 319.171 32.0758C319.352 32.1596 319.51 32.2855 319.633 32.4437C319.839 32.8567 319.918 33.322 319.861 33.7802V34.0155C319.684 34.0357 319.499 34.0547 319.308 34.0743L319.307 34.0743C318.332 34.1742 317.209 34.2892 316.364 34.6579C315.764 34.8953 315.25 35.3128 314.896 35.8534ZM290.516 35.8564C290.162 36.3964 289.982 37.033 290.001 37.6792V37.6787C290.001 39.5971 291.221 40.5563 292.786 40.5619C293.367 40.5955 293.948 40.4914 294.481 40.2578C295.014 40.0241 295.484 39.6675 295.853 39.2174C296.13 39.6909 296.491 40.1093 296.92 40.451C296.989 40.4893 297.067 40.5061 297.145 40.4986C297.224 40.4912 297.298 40.4599 297.359 40.4093L297.365 40.4124C297.735 40.0865 298.408 39.4998 298.79 39.1858C298.822 39.1539 298.848 39.1158 298.866 39.0739C298.884 39.0319 298.893 38.987 298.893 38.9414C298.894 38.8958 298.885 38.8501 298.868 38.8079C298.851 38.7656 298.826 38.7274 298.793 38.695C298.352 38.2333 298.102 37.6212 298.094 36.9821V34.1014C298.094 34.0039 298.094 33.907 298.095 33.8109C298.101 32.7054 298.107 31.6951 297.276 30.9221C296.482 30.2902 295.488 29.9641 294.474 30.0031C292.705 30.0031 290.732 30.6563 290.316 32.8296C290.307 32.8733 290.308 32.9186 290.317 32.9621C290.326 33.0057 290.344 33.0468 290.37 33.0831C290.396 33.1194 290.429 33.1498 290.467 33.1729C290.505 33.1961 290.547 33.2113 290.591 33.2176L292.399 33.4098C292.482 33.3953 292.558 33.3548 292.615 33.2939C292.673 33.233 292.71 33.1549 292.72 33.0715C292.793 32.7367 292.985 32.4399 293.26 32.2359C293.535 32.032 293.875 31.9351 294.216 31.9629C294.416 31.9535 294.614 31.9921 294.795 32.0758C294.977 32.1596 295.135 32.2857 295.258 32.4437C295.462 32.8574 295.54 33.3223 295.483 33.7802V34.0181C295.301 34.0392 295.11 34.059 294.913 34.0794H294.913C293.942 34.1801 292.826 34.2958 291.985 34.6619C291.384 34.8992 290.872 35.3164 290.516 35.8564ZM336.799 30.0889C334.109 30.0889 332.618 32.3855 332.617 35.3343C332.618 38.2678 334.089 40.6225 336.799 40.6245C339.402 40.6245 341.052 38.329 341.052 35.4367C341.059 32.4432 339.562 30.0889 336.799 30.0889ZM327.805 46.3751C328.229 45.3308 329.17 42.9873 328.726 42.4178C328.289 41.8583 325.861 42.1406 324.711 42.2745L324.652 42.2814C324.309 42.322 324.259 42.0243 324.565 41.8116C326.562 40.4184 329.835 40.821 330.215 41.2897C330.594 41.7583 330.118 45.0248 328.24 46.5778C328.161 46.6503 328.061 46.6934 327.955 46.7006C327.807 46.7017 327.723 46.5773 327.806 46.3731L327.805 46.3751ZM298.6 42.0065C298.273 41.713 298.565 41.312 298.96 41.5438C303.77 44.2757 309.206 45.7088 314.736 45.7027C318.87 45.6839 322.959 44.8526 326.772 43.2557C327.363 43.0095 327.854 43.6467 327.278 44.0707C323.787 46.6294 318.728 47.9918 314.37 47.9918C308.554 48.0236 302.933 45.8906 298.6 42.0065ZM335.356 35.0369V35.0717C335.356 36.244 335.356 38.6689 336.799 38.6689C338.245 38.6689 338.314 36.6749 338.308 35.4585C338.339 34.6108 338.245 33.763 338.03 32.9426C337.971 32.6687 337.816 32.4252 337.593 32.2566C337.37 32.0879 337.093 32.006 336.814 32.0252C335.445 32.0257 335.356 33.8755 335.356 35.0349V35.0369ZM292.722 37.3578C292.722 38.1574 293.137 38.6963 293.851 38.6963C294.121 38.685 294.383 38.6013 294.609 38.4538C294.835 38.3063 295.018 38.1006 295.137 37.8581C295.436 37.2508 295.558 36.5707 295.486 35.8973V35.4988C294.14 35.4963 292.72 35.7817 292.72 37.3553L292.722 37.3578ZM317.095 37.358C317.095 38.1576 317.513 38.6964 318.228 38.6964C318.498 38.6845 318.759 38.6005 318.984 38.4531C319.21 38.3056 319.392 38.1002 319.512 37.8583C319.811 37.251 319.932 36.5709 319.861 35.8975V35.499C318.513 35.4965 317.093 35.7818 317.093 37.3554L317.095 37.358ZM347.643 40.3376C347.702 40.3922 347.779 40.4247 347.859 40.43L349.728 40.434C349.813 40.4344 349.896 40.4046 349.962 40.3497C350.028 40.2948 350.072 40.2183 350.087 40.1339V34.1632V34.1603C350.087 33.2427 350.087 31.97 349.6 31.2102C349.366 30.8497 349.043 30.5564 348.662 30.36C348.28 30.1636 347.854 30.0706 347.426 30.0905C346.144 30.0905 345.411 30.7101 344.893 32.0056H344.864V30.5568C344.843 30.4824 344.801 30.4162 344.741 30.368C344.681 30.3199 344.607 30.2928 344.53 30.2898H342.807C342.719 30.2872 342.634 30.3171 342.567 30.3741C342.501 30.4311 342.458 30.511 342.447 30.5979L342.449 40.0852C342.451 40.1748 342.487 40.2605 342.549 40.3246C342.612 40.3887 342.697 40.4262 342.786 40.43H344.634C344.68 40.4313 344.726 40.4235 344.77 40.4069C344.814 40.3902 344.853 40.3652 344.887 40.3332C344.921 40.3011 344.948 40.2627 344.967 40.2202C344.986 40.1776 344.996 40.1318 344.998 40.0852V34.9807C344.962 34.3665 345.063 33.752 345.295 33.182C345.382 32.9653 345.531 32.7785 345.722 32.644C345.914 32.5096 346.14 32.4328 346.373 32.4237C347.554 32.4237 347.542 33.7109 347.533 34.7249C347.532 34.8119 347.531 34.8968 347.531 34.9787V40.1298C347.544 40.2098 347.583 40.2831 347.643 40.3376ZM310.544 40.4262C310.455 40.4214 310.371 40.3834 310.309 40.3198C310.247 40.2563 310.211 40.1717 310.209 40.0829V35.0548C310.236 34.4614 310.219 33.8669 310.158 33.2761C310.12 33.0232 309.983 32.7952 309.779 32.6423C309.574 32.4894 309.317 32.4241 309.065 32.4601C308.824 32.4671 308.59 32.5443 308.393 32.6824C308.195 32.8206 308.043 33.0135 307.953 33.2375C307.799 33.8301 307.741 34.4437 307.781 35.0548V40.0829C307.78 40.1291 307.77 40.1747 307.752 40.217C307.733 40.2592 307.706 40.2975 307.672 40.3293C307.639 40.3613 307.6 40.386 307.557 40.4026C307.514 40.4193 307.468 40.4274 307.422 40.4262H305.565C305.476 40.4221 305.392 40.3845 305.33 40.3208C305.267 40.2571 305.231 40.1721 305.229 40.0829V35.0548C305.229 34.9486 305.231 34.8374 305.233 34.7233C305.248 33.7 305.268 32.4406 304.08 32.4406C302.795 32.4406 302.797 33.8466 302.799 34.9305L302.799 35.0548V40.084C302.798 40.1301 302.788 40.1753 302.769 40.2175C302.751 40.2596 302.724 40.2976 302.691 40.3293C302.657 40.3612 302.618 40.3861 302.575 40.4026C302.531 40.4192 302.486 40.4274 302.44 40.4262H300.579C300.495 40.4235 300.415 40.3907 300.354 40.3334C300.293 40.2761 300.254 40.1981 300.246 40.1146V30.6303C300.247 30.5842 300.257 30.539 300.276 30.4968C300.294 30.4546 300.321 30.4167 300.354 30.3849C300.388 30.3531 300.427 30.3282 300.47 30.3116C300.513 30.2951 300.559 30.2868 300.605 30.288H302.338C302.424 30.2903 302.505 30.3241 302.567 30.3828C302.63 30.4416 302.669 30.5213 302.676 30.6067V31.8443H302.708C302.863 31.3209 303.188 30.864 303.632 30.546C304.075 30.2279 304.611 30.0667 305.156 30.0878C306.32 30.0878 307.05 30.6484 307.569 31.8443C307.745 31.3927 308.037 30.9954 308.415 30.6925C308.793 30.3896 309.244 30.1918 309.723 30.1189C310.202 30.046 310.691 30.1004 311.142 30.277C311.593 30.4536 311.99 30.7464 312.291 31.1251C312.795 31.8081 312.779 32.757 312.765 33.6539C312.762 33.8038 312.76 33.9522 312.76 34.0977L312.758 40.0829C312.757 40.1291 312.746 40.1747 312.727 40.217C312.709 40.2592 312.682 40.297 312.649 40.3289C312.615 40.3607 312.576 40.386 312.533 40.4026C312.49 40.4193 312.444 40.4273 312.398 40.4262H310.544ZM324.388 38.4665V39.8436L324.386 39.8416C324.388 39.9276 324.422 40.0094 324.48 40.0725C324.539 40.1355 324.618 40.1755 324.703 40.1844C324.744 40.1842 324.785 40.1731 324.821 40.1528C325.819 39.6396 326.925 39.3714 328.047 39.3699C329.168 39.3684 330.275 39.6338 331.274 40.1443C331.324 40.1646 331.379 40.1723 331.433 40.1664C331.487 40.1604 331.538 40.141 331.583 40.1102C331.627 40.0793 331.664 40.038 331.688 39.9897C331.713 39.9414 331.725 39.8874 331.724 39.8331V38.3848C331.72 38.276 331.688 38.1698 331.63 38.0776C331.573 37.9853 331.492 37.9101 331.396 37.8588C330.321 37.3042 329.118 37.0473 327.91 37.115L331.081 32.6223C331.376 32.2179 331.543 31.9654 331.543 31.7706V30.6078C331.544 30.5615 331.535 30.516 331.517 30.4733C331.499 30.4306 331.473 30.3916 331.44 30.3594C331.407 30.3272 331.367 30.302 331.324 30.2856C331.281 30.2692 331.235 30.2619 331.188 30.264H325.08C325.035 30.2624 324.989 30.2704 324.947 30.2871C324.904 30.3038 324.866 30.3291 324.833 30.3614C324.801 30.3936 324.776 30.4319 324.759 30.4743C324.742 30.5167 324.734 30.5622 324.736 30.6078V31.9653C324.735 32.0114 324.743 32.0568 324.761 32.0994C324.778 32.1419 324.805 32.1803 324.838 32.2123C324.871 32.2442 324.91 32.2695 324.953 32.2855C324.996 32.3016 325.042 32.3086 325.088 32.3061H328.281L324.612 37.5356C324.446 37.8167 324.368 38.1407 324.388 38.4665Z" fill="#FAFAFA"/>
<path opacity="0.4" d="M330.459 208.999C340.414 208.999 348.484 200.929 348.484 190.973C348.484 181.017 340.414 172.947 330.459 172.947C320.503 172.947 312.433 181.017 312.433 190.973C312.433 200.929 320.503 208.999 330.459 208.999Z" fill="#FAFAFA"/>
<path opacity="0.859468" d="M308.026 208.999C317.982 208.999 326.052 200.929 326.052 190.973C326.052 181.017 317.982 172.947 308.026 172.947C298.071 172.947 290 181.017 290 190.973C290 200.929 298.071 208.999 308.026 208.999Z" fill="#FAFAFA"/>
<path d="M30.96 47L33.136 35.8H34.752L37.48 42.976L40.208 35.8H41.824L44 47H42.008L40.664 40.072L38.144 46.744H36.808L34.288 40.072L32.952 47H30.96ZM48.7894 47.208C48.0534 47.208 47.3814 47.0187 46.7734 46.64C46.1707 46.2613 45.688 45.7547 45.3254 45.12C44.968 44.48 44.7894 43.7733 44.7894 43C44.7894 42.4133 44.8934 41.8667 45.1014 41.36C45.3094 40.848 45.5947 40.4 45.9574 40.016C46.3254 39.6267 46.752 39.3227 47.2374 39.104C47.7227 38.8853 48.24 38.776 48.7894 38.776C49.5254 38.776 50.1947 38.9653 50.7974 39.344C51.4054 39.7227 51.888 40.232 52.2454 40.872C52.608 41.512 52.7894 42.2213 52.7894 43C52.7894 43.5813 52.6854 44.1253 52.4774 44.632C52.2694 45.1387 51.9814 45.5867 51.6134 45.976C51.2507 46.36 50.8267 46.6613 50.3414 46.88C49.8614 47.0987 49.344 47.208 48.7894 47.208ZM48.7894 45.256C49.1787 45.256 49.528 45.152 49.8374 44.944C50.1467 44.736 50.3894 44.4613 50.5654 44.12C50.7467 43.7787 50.8374 43.4053 50.8374 43C50.8374 42.584 50.744 42.2053 50.5574 41.864C50.376 41.5173 50.128 41.2427 49.8134 41.04C49.504 40.832 49.1627 40.728 48.7894 40.728C48.4054 40.728 48.0587 40.832 47.7494 41.04C47.44 41.248 47.1947 41.5253 47.0134 41.872C46.832 42.2187 46.7414 42.5947 46.7414 43C46.7414 43.4213 46.8347 43.8027 47.0214 44.144C47.208 44.4853 47.456 44.7573 47.7654 44.96C48.08 45.1573 48.4214 45.256 48.7894 45.256ZM59.2262 44.592L60.9862 45.544C60.6182 46.0453 60.1569 46.448 59.6023 46.752C59.0476 47.056 58.4422 47.208 57.7862 47.208C57.0502 47.208 56.3782 47.0187 55.7702 46.64C55.1676 46.2613 54.6849 45.7547 54.3222 45.12C53.9649 44.48 53.7862 43.7733 53.7862 43C53.7862 42.4133 53.8902 41.8667 54.0982 41.36C54.3062 40.848 54.5916 40.4 54.9542 40.016C55.3222 39.6267 55.7489 39.3227 56.2342 39.104C56.7196 38.8853 57.2369 38.776 57.7862 38.776C58.4422 38.776 59.0476 38.928 59.6023 39.232C60.1569 39.536 60.6182 39.944 60.9862 40.456L59.2262 41.4C59.0396 41.1867 58.8182 41.0213 58.5622 40.904C58.3116 40.7867 58.0529 40.728 57.7862 40.728C57.4022 40.728 57.0556 40.8347 56.7462 41.048C56.4369 41.256 56.1916 41.5333 56.0102 41.88C55.8289 42.2213 55.7382 42.5947 55.7382 43C55.7382 43.4 55.8289 43.7733 56.0102 44.12C56.1916 44.4613 56.4369 44.736 56.7462 44.944C57.0556 45.152 57.4022 45.256 57.7862 45.256C58.0636 45.256 58.3276 45.1973 58.5782 45.08C58.8289 44.9573 59.0449 44.7947 59.2262 44.592ZM68.4045 39H70.3565V47H68.4045L68.3165 46.008C68.0978 46.3653 67.8072 46.656 67.4445 46.88C67.0872 47.0987 66.6632 47.208 66.1725 47.208C65.5805 47.208 65.0258 47.096 64.5085 46.872C63.9912 46.648 63.5352 46.3387 63.1405 45.944C62.7512 45.5493 62.4445 45.0933 62.2205 44.576C62.0018 44.0587 61.8925 43.504 61.8925 42.912C61.8925 42.3413 61.9965 41.8053 62.2045 41.304C62.4178 40.8027 62.7138 40.3627 63.0925 39.984C63.4712 39.6053 63.9085 39.3093 64.4045 39.096C64.9005 38.8827 65.4338 38.776 66.0045 38.776C66.5325 38.776 67.0045 38.8933 67.4205 39.128C67.8418 39.3627 68.1992 39.6613 68.4925 40.024L68.4045 39ZM66.1245 45.328C66.5405 45.328 66.9085 45.224 67.2285 45.016C67.5485 44.808 67.7992 44.528 67.9805 44.176C68.1618 43.8187 68.2525 43.4267 68.2525 43C68.2525 42.568 68.1618 42.176 67.9805 41.824C67.7992 41.4667 67.5458 41.184 67.2205 40.976C66.9005 40.768 66.5352 40.664 66.1245 40.664C65.7138 40.664 65.3378 40.7707 64.9965 40.984C64.6605 41.192 64.3912 41.472 64.1885 41.824C63.9912 42.176 63.8925 42.568 63.8925 43C63.8925 43.432 63.9938 43.824 64.1965 44.176C64.3992 44.528 64.6685 44.808 65.0045 45.016C65.3458 45.224 65.7192 45.328 66.1245 45.328ZM72.1586 47L72.1506 39H74.1026L74.1106 39.712C74.3826 39.424 74.708 39.1973 75.0866 39.032C75.4653 38.8613 75.8733 38.776 76.3106 38.776C76.604 38.776 76.8973 38.8187 77.1906 38.904L76.4226 40.872C76.22 40.792 76.0173 40.752 75.8146 40.752C75.5 40.752 75.212 40.8293 74.9506 40.984C74.6946 41.1333 74.4893 41.3387 74.3346 41.6C74.1853 41.856 74.1106 42.1413 74.1106 42.456V47H72.1586ZM83.9611 35H85.9131V47H83.9611V46C83.7051 46.3573 83.3825 46.648 82.9931 46.872C82.6038 47.096 82.1531 47.208 81.6411 47.208C81.0598 47.208 80.5158 47.0987 80.0091 46.88C79.5025 46.6613 79.0545 46.36 78.6651 45.976C78.2811 45.5867 77.9798 45.1387 77.7611 44.632C77.5425 44.1253 77.4331 43.5813 77.4331 43C77.4331 42.4187 77.5425 41.8747 77.7611 41.368C77.9798 40.8613 78.2811 40.416 78.6651 40.032C79.0545 39.6427 79.5025 39.3387 80.0091 39.12C80.5158 38.9013 81.0598 38.792 81.6411 38.792C82.1531 38.792 82.6038 38.904 82.9931 39.128C83.3825 39.3467 83.7051 39.6373 83.9611 40V35ZM81.6651 45.328C82.0811 45.328 82.4491 45.224 82.7691 45.016C83.0891 44.808 83.3398 44.528 83.5211 44.176C83.7025 43.8187 83.7931 43.4267 83.7931 43C83.7931 42.568 83.7025 42.176 83.5211 41.824C83.3398 41.4667 83.0865 41.184 82.7611 40.976C82.4411 40.768 82.0758 40.664 81.6651 40.664C81.2545 40.664 80.8785 40.7707 80.5371 40.984C80.2011 41.192 79.9318 41.472 79.7291 41.824C79.5318 42.176 79.4331 42.568 79.4331 43C79.4331 43.432 79.5345 43.824 79.7371 44.176C79.9398 44.528 80.2091 44.808 80.5451 45.016C80.8865 45.224 81.2598 45.328 81.6651 45.328Z" fill="#FAFAFA"/>
<path d="M35.928 119.608C34.808 119.608 33.856 119.224 33.072 118.456C32.304 117.672 31.92 116.72 31.92 115.6C31.92 114.48 32.304 113.536 33.072 112.768C33.856 111.984 34.808 111.592 35.928 111.592C37.048 111.592 38 111.984 38.784 112.768C39.568 113.536 39.96 114.48 39.96 115.6C39.96 116.72 39.568 117.672 38.784 118.456C38 119.224 37.048 119.608 35.928 119.608ZM47.7874 119.608C46.6674 119.608 45.7154 119.224 44.9314 118.456C44.1634 117.672 43.7794 116.72 43.7794 115.6C43.7794 114.48 44.1634 113.536 44.9314 112.768C45.7154 111.984 46.6674 111.592 47.7874 111.592C48.9074 111.592 49.8594 111.984 50.6434 112.768C51.4274 113.536 51.8194 114.48 51.8194 115.6C51.8194 116.72 51.4274 117.672 50.6434 118.456C49.8594 119.224 48.9074 119.608 47.7874 119.608ZM59.6468 119.608C58.5268 119.608 57.5748 119.224 56.7908 118.456C56.0228 117.672 55.6388 116.72 55.6388 115.6C55.6388 114.48 56.0228 113.536 56.7908 112.768C57.5748 111.984 58.5268 111.592 59.6468 111.592C60.7668 111.592 61.7188 111.984 62.5028 112.768C63.2868 113.536 63.6788 114.48 63.6788 115.6C63.6788 116.72 63.2868 117.672 62.5028 118.456C61.7188 119.224 60.7668 119.608 59.6468 119.608ZM71.5061 119.608C70.3861 119.608 69.4341 119.224 68.6501 118.456C67.8821 117.672 67.4981 116.72 67.4981 115.6C67.4981 114.48 67.8821 113.536 68.6501 112.768C69.4341 111.984 70.3861 111.592 71.5061 111.592C72.6261 111.592 73.5781 111.984 74.3621 112.768C75.1461 113.536 75.5381 114.48 75.5381 115.6C75.5381 116.72 75.1461 117.672 74.3621 118.456C73.5781 119.224 72.6261 119.608 71.5061 119.608ZM94.8968 119.608C93.7768 119.608 92.8248 119.224 92.0408 118.456C91.2728 117.672 90.8888 116.72 90.8888 115.6C90.8888 114.48 91.2728 113.536 92.0408 112.768C92.8248 111.984 93.7768 111.592 94.8968 111.592C96.0168 111.592 96.9688 111.984 97.7528 112.768C98.5368 113.536 98.9288 114.48 98.9288 115.6C98.9288 116.72 98.5368 117.672 97.7528 118.456C96.9688 119.224 96.0168 119.608 94.8968 119.608ZM106.756 119.608C105.636 119.608 104.684 119.224 103.9 118.456C103.132 117.672 102.748 116.72 102.748 115.6C102.748 114.48 103.132 113.536 103.9 112.768C104.684 111.984 105.636 111.592 106.756 111.592C107.876 111.592 108.828 111.984 109.612 112.768C110.396 113.536 110.788 114.48 110.788 115.6C110.788 116.72 110.396 117.672 109.612 118.456C108.828 119.224 107.876 119.608 106.756 119.608ZM118.616 119.608C117.496 119.608 116.544 119.224 115.76 118.456C114.992 117.672 114.608 116.72 114.608 115.6C114.608 114.48 114.992 113.536 115.76 112.768C116.544 111.984 117.496 111.592 118.616 111.592C119.736 111.592 120.688 111.984 121.472 112.768C122.256 113.536 122.648 114.48 122.648 115.6C122.648 116.72 122.256 117.672 121.472 118.456C120.688 119.224 119.736 119.608 118.616 119.608ZM130.475 119.608C129.355 119.608 128.403 119.224 127.619 118.456C126.851 117.672 126.467 116.72 126.467 115.6C126.467 114.48 126.851 113.536 127.619 112.768C128.403 111.984 129.355 111.592 130.475 111.592C131.595 111.592 132.547 111.984 133.331 112.768C134.115 113.536 134.507 114.48 134.507 115.6C134.507 116.72 134.115 117.672 133.331 118.456C132.547 119.224 131.595 119.608 130.475 119.608ZM153.866 119.608C152.746 119.608 151.794 119.224 151.01 118.456C150.242 117.672 149.858 116.72 149.858 115.6C149.858 114.48 150.242 113.536 151.01 112.768C151.794 111.984 152.746 111.592 153.866 111.592C154.986 111.592 155.938 111.984 156.722 112.768C157.506 113.536 157.898 114.48 157.898 115.6C157.898 116.72 157.506 117.672 156.722 118.456C155.938 119.224 154.986 119.608 153.866 119.608ZM165.725 119.608C164.605 119.608 163.653 119.224 162.869 118.456C162.101 117.672 161.717 116.72 161.717 115.6C161.717 114.48 162.101 113.536 162.869 112.768C163.653 111.984 164.605 111.592 165.725 111.592C166.845 111.592 167.797 111.984 168.581 112.768C169.365 113.536 169.757 114.48 169.757 115.6C169.757 116.72 169.365 117.672 168.581 118.456C167.797 119.224 166.845 119.608 165.725 119.608ZM177.584 119.608C176.464 119.608 175.512 119.224 174.728 118.456C173.96 117.672 173.576 116.72 173.576 115.6C173.576 114.48 173.96 113.536 174.728 112.768C175.512 111.984 176.464 111.592 177.584 111.592C178.704 111.592 179.656 111.984 180.44 112.768C181.224 113.536 181.616 114.48 181.616 115.6C181.616 116.72 181.224 117.672 180.44 118.456C179.656 119.224 178.704 119.608 177.584 119.608ZM189.444 119.608C188.324 119.608 187.372 119.224 186.588 118.456C185.82 117.672 185.436 116.72 185.436 115.6C185.436 114.48 185.82 113.536 186.588 112.768C187.372 111.984 188.324 111.592 189.444 111.592C190.564 111.592 191.516 111.984 192.3 112.768C193.084 113.536 193.476 114.48 193.476 115.6C193.476 116.72 193.084 117.672 192.3 118.456C191.516 119.224 190.564 119.608 189.444 119.608ZM212.834 119.608C211.714 119.608 210.762 119.224 209.978 118.456C209.21 117.672 208.826 116.72 208.826 115.6C208.826 114.48 209.21 113.536 209.978 112.768C210.762 111.984 211.714 111.592 212.834 111.592C213.954 111.592 214.906 111.984 215.69 112.768C216.474 113.536 216.866 114.48 216.866 115.6C216.866 116.72 216.474 117.672 215.69 118.456C214.906 119.224 213.954 119.608 212.834 119.608ZM224.694 119.608C223.574 119.608 222.622 119.224 221.838 118.456C221.07 117.672 220.686 116.72 220.686 115.6C220.686 114.48 221.07 113.536 221.838 112.768C222.622 111.984 223.574 111.592 224.694 111.592C225.814 111.592 226.766 111.984 227.55 112.768C228.334 113.536 228.726 114.48 228.726 115.6C228.726 116.72 228.334 117.672 227.55 118.456C226.766 119.224 225.814 119.608 224.694 119.608ZM236.553 119.608C235.433 119.608 234.481 119.224 233.697 118.456C232.929 117.672 232.545 116.72 232.545 115.6C232.545 114.48 232.929 113.536 233.697 112.768C234.481 111.984 235.433 111.592 236.553 111.592C237.673 111.592 238.625 111.984 239.409 112.768C240.193 113.536 240.585 114.48 240.585 115.6C240.585 116.72 240.193 117.672 239.409 118.456C238.625 119.224 237.673 119.608 236.553 119.608ZM248.412 119.608C247.292 119.608 246.34 119.224 245.556 118.456C244.788 117.672 244.404 116.72 244.404 115.6C244.404 114.48 244.788 113.536 245.556 112.768C246.34 111.984 247.292 111.592 248.412 111.592C249.532 111.592 250.484 111.984 251.268 112.768C252.052 113.536 252.444 114.48 252.444 115.6C252.444 116.72 252.052 117.672 251.268 118.456C250.484 119.224 249.532 119.608 248.412 119.608Z" fill="#FAFAFA"/>
<path d="M35.26 184H34.175L31.965 180.965L31.44 181.595V184H30.6V177H31.44V180.29L34.195 177H35.29L32.515 180.305L35.26 184ZM39.9177 179H40.7577V184H39.9177L39.8827 183.155C39.726 183.445 39.5093 183.68 39.2327 183.86C38.9593 184.04 38.6327 184.13 38.2527 184.13C37.886 184.13 37.5427 184.062 37.2227 183.925C36.9027 183.785 36.6193 183.593 36.3727 183.35C36.1293 183.103 35.9393 182.82 35.8027 182.5C35.666 182.18 35.5977 181.835 35.5977 181.465C35.5977 181.108 35.6643 180.772 35.7977 180.455C35.931 180.138 36.116 179.862 36.3527 179.625C36.5927 179.385 36.8693 179.198 37.1827 179.065C37.496 178.928 37.8327 178.86 38.1927 178.86C38.586 178.86 38.931 178.953 39.2277 179.14C39.5243 179.323 39.7643 179.562 39.9477 179.855L39.9177 179ZM38.2377 183.315C38.5677 183.315 38.8527 183.235 39.0927 183.075C39.336 182.912 39.5227 182.692 39.6527 182.415C39.786 182.138 39.8527 181.833 39.8527 181.5C39.8527 181.16 39.786 180.853 39.6527 180.58C39.5193 180.303 39.331 180.085 39.0877 179.925C38.8477 179.762 38.5643 179.68 38.2377 179.68C37.9077 179.68 37.6077 179.762 37.3377 179.925C37.0677 180.088 36.8527 180.308 36.6927 180.585C36.536 180.858 36.4577 181.163 36.4577 181.5C36.4577 181.837 36.5393 182.143 36.7027 182.42C36.866 182.693 37.0827 182.912 37.3527 183.075C37.6227 183.235 37.9177 183.315 38.2377 183.315ZM41.957 184V179H42.797V179.625C42.9737 179.392 43.197 179.207 43.467 179.07C43.737 178.93 44.0304 178.86 44.347 178.86C44.5404 178.86 44.727 178.885 44.907 178.935L44.567 179.775C44.4304 179.732 44.297 179.71 44.167 179.71C43.917 179.71 43.687 179.772 43.477 179.895C43.2704 180.015 43.1054 180.178 42.982 180.385C42.8587 180.592 42.797 180.822 42.797 181.075V184H41.957ZM48.3994 179.84H47.2644L47.2594 184H46.4194L46.4244 179.84H45.5644V179H46.4244L46.4194 177.43H47.2594L47.2644 179H48.3994V179.84ZM53.3887 179H54.2287V184H53.3887L53.3537 183.155C53.1971 183.445 52.9804 183.68 52.7037 183.86C52.4304 184.04 52.1037 184.13 51.7237 184.13C51.3571 184.13 51.0137 184.062 50.6937 183.925C50.3737 183.785 50.0904 183.593 49.8437 183.35C49.6004 183.103 49.4104 182.82 49.2737 182.5C49.1371 182.18 49.0687 181.835 49.0687 181.465C49.0687 181.108 49.1354 180.772 49.2687 180.455C49.4021 180.138 49.5871 179.862 49.8237 179.625C50.0637 179.385 50.3404 179.198 50.6537 179.065C50.9671 178.928 51.3037 178.86 51.6637 178.86C52.0571 178.86 52.4021 178.953 52.6987 179.14C52.9954 179.323 53.2354 179.562 53.4187 179.855L53.3887 179ZM51.7087 183.315C52.0387 183.315 52.3237 183.235 52.5637 183.075C52.8071 182.912 52.9937 182.692 53.1237 182.415C53.2571 182.138 53.3237 181.833 53.3237 181.5C53.3237 181.16 53.2571 180.853 53.1237 180.58C52.9904 180.303 52.8021 180.085 52.5587 179.925C52.3187 179.762 52.0354 179.68 51.7087 179.68C51.3787 179.68 51.0787 179.762 50.8087 179.925C50.5387 180.088 50.3237 180.308 50.1637 180.585C50.0071 180.858 49.9287 181.163 49.9287 181.5C49.9287 181.837 50.0104 182.143 50.1737 182.42C50.3371 182.693 50.5537 182.912 50.8237 183.075C51.0937 183.235 51.3887 183.315 51.7087 183.315ZM60.2305 184.13C59.7705 184.13 59.3505 184.012 58.9705 183.775C58.5938 183.538 58.2921 183.222 58.0655 182.825C57.8421 182.425 57.7305 181.983 57.7305 181.5C57.7305 181.133 57.7955 180.792 57.9255 180.475C58.0555 180.155 58.2338 179.875 58.4605 179.635C58.6905 179.392 58.9571 179.202 59.2605 179.065C59.5638 178.928 59.8871 178.86 60.2305 178.86C60.6071 178.86 60.9521 178.937 61.2655 179.09C61.5821 179.24 61.8521 179.45 62.0755 179.72C62.3021 179.99 62.4705 180.303 62.5805 180.66C62.6938 181.017 62.7355 181.398 62.7055 181.805H58.6255C58.6655 182.088 58.7588 182.342 58.9055 182.565C59.0521 182.785 59.2388 182.96 59.4655 183.09C59.6955 183.22 59.9505 183.287 60.2305 183.29C60.5305 183.29 60.8021 183.213 61.0455 183.06C61.2888 182.903 61.4855 182.69 61.6355 182.42L62.4905 182.62C62.2905 183.063 61.9888 183.427 61.5855 183.71C61.1821 183.99 60.7305 184.13 60.2305 184.13ZM58.6005 181.145H61.8605C61.8338 180.865 61.7438 180.61 61.5905 180.38C61.4371 180.147 61.2421 179.96 61.0055 179.82C60.7688 179.68 60.5105 179.61 60.2305 179.61C59.9505 179.61 59.6938 179.678 59.4605 179.815C59.2271 179.952 59.0338 180.137 58.8805 180.37C58.7305 180.6 58.6371 180.858 58.6005 181.145ZM67.6238 179H68.4638V184.16C68.4638 184.49 68.3921 184.797 68.2488 185.08C68.1088 185.367 67.9188 185.615 67.6788 185.825C67.4388 186.038 67.1654 186.203 66.8588 186.32C66.5521 186.44 66.2321 186.5 65.8988 186.5C65.5521 186.5 65.2171 186.422 64.8938 186.265C64.5704 186.112 64.2871 185.905 64.0438 185.645C63.8038 185.388 63.6304 185.1 63.5238 184.78L64.2938 184.43C64.3571 184.66 64.4704 184.867 64.6338 185.05C64.8004 185.237 64.9938 185.383 65.2138 185.49C65.4371 185.6 65.6654 185.655 65.8988 185.655C66.1188 185.655 66.3304 185.617 66.5338 185.54C66.7404 185.463 66.9254 185.357 67.0888 185.22C67.2554 185.087 67.3854 184.928 67.4788 184.745C67.5754 184.565 67.6238 184.37 67.6238 184.16V183.165C67.4538 183.452 67.2288 183.685 66.9488 183.865C66.6721 184.042 66.3488 184.13 65.9788 184.13C65.6254 184.13 65.2938 184.062 64.9838 183.925C64.6738 183.788 64.4021 183.6 64.1688 183.36C63.9354 183.117 63.7521 182.837 63.6188 182.52C63.4854 182.203 63.4188 181.863 63.4188 181.5C63.4188 181.137 63.4854 180.797 63.6188 180.48C63.7521 180.16 63.9354 179.88 64.1688 179.64C64.4021 179.397 64.6738 179.207 64.9838 179.07C65.2938 178.933 65.6254 178.865 65.9788 178.865C66.3488 178.865 66.6721 178.953 66.9488 179.13C67.2288 179.307 67.4538 179.54 67.6238 179.83V179ZM65.9838 183.315C66.3071 183.315 66.5871 183.232 66.8238 183.065C67.0638 182.898 67.2488 182.677 67.3788 182.4C67.5088 182.123 67.5738 181.823 67.5738 181.5C67.5738 181.167 67.5071 180.863 67.3738 180.59C67.2438 180.313 67.0588 180.093 66.8188 179.93C66.5821 179.763 66.3038 179.68 65.9838 179.68C65.6704 179.68 65.3838 179.762 65.1238 179.925C64.8638 180.088 64.6571 180.308 64.5038 180.585C64.3538 180.858 64.2788 181.163 64.2788 181.5C64.2788 181.837 64.3554 182.143 64.5088 182.42C64.6654 182.693 64.8721 182.912 65.1288 183.075C65.3888 183.235 65.6738 183.315 65.9838 183.315ZM73.8177 179H74.6577V184H73.8177L73.7827 183.155C73.626 183.445 73.4093 183.68 73.1327 183.86C72.8593 184.04 72.5327 184.13 72.1527 184.13C71.786 184.13 71.4427 184.062 71.1227 183.925C70.8027 183.785 70.5193 183.593 70.2727 183.35C70.0293 183.103 69.8393 182.82 69.7027 182.5C69.566 182.18 69.4977 181.835 69.4977 181.465C69.4977 181.108 69.5643 180.772 69.6977 180.455C69.831 180.138 70.016 179.862 70.2527 179.625C70.4927 179.385 70.7693 179.198 71.0827 179.065C71.396 178.928 71.7327 178.86 72.0927 178.86C72.486 178.86 72.831 178.953 73.1277 179.14C73.4243 179.323 73.6643 179.562 73.8477 179.855L73.8177 179ZM72.1377 183.315C72.4677 183.315 72.7527 183.235 72.9927 183.075C73.236 182.912 73.4227 182.692 73.5527 182.415C73.686 182.138 73.7527 181.833 73.7527 181.5C73.7527 181.16 73.686 180.853 73.5527 180.58C73.4193 180.303 73.231 180.085 72.9877 179.925C72.7477 179.762 72.4643 179.68 72.1377 179.68C71.8077 179.68 71.5077 179.762 71.2377 179.925C70.9677 180.088 70.7527 180.308 70.5927 180.585C70.436 180.858 70.3577 181.163 70.3577 181.5C70.3577 181.837 70.4393 182.143 70.6027 182.42C70.766 182.693 70.9827 182.912 71.2527 183.075C71.5227 183.235 71.8177 183.315 72.1377 183.315ZM77.382 184.095C77.112 184.085 76.8487 184.035 76.592 183.945C76.3387 183.852 76.1154 183.727 75.922 183.57C75.732 183.41 75.5937 183.227 75.507 183.02L76.227 182.71C76.277 182.823 76.367 182.93 76.497 183.03C76.627 183.13 76.777 183.21 76.947 183.27C77.117 183.33 77.2887 183.36 77.462 183.36C77.6454 183.36 77.817 183.332 77.977 183.275C78.137 183.218 78.267 183.135 78.367 183.025C78.4704 182.912 78.522 182.777 78.522 182.62C78.522 182.453 78.4654 182.323 78.352 182.23C78.242 182.133 78.102 182.058 77.932 182.005C77.7654 181.948 77.5954 181.895 77.422 181.845C77.0787 181.758 76.772 181.655 76.502 181.535C76.232 181.412 76.0187 181.257 75.862 181.07C75.7087 180.88 75.632 180.638 75.632 180.345C75.632 180.035 75.717 179.767 75.887 179.54C76.0604 179.313 76.287 179.138 76.567 179.015C76.847 178.892 77.147 178.83 77.467 178.83C77.8704 178.83 78.2387 178.917 78.572 179.09C78.9054 179.263 79.1537 179.498 79.317 179.795L78.642 180.19C78.5854 180.07 78.4987 179.965 78.382 179.875C78.2654 179.782 78.132 179.708 77.982 179.655C77.832 179.602 77.6787 179.573 77.522 179.57C77.3287 179.563 77.147 179.588 76.977 179.645C76.8104 179.702 76.6754 179.788 76.572 179.905C76.472 180.018 76.422 180.16 76.422 180.33C76.422 180.497 76.4754 180.623 76.582 180.71C76.692 180.797 76.8337 180.867 77.007 180.92C77.1837 180.97 77.3754 181.028 77.582 181.095C77.8854 181.192 78.1687 181.303 78.432 181.43C78.6954 181.557 78.907 181.715 79.067 181.905C79.2304 182.095 79.3104 182.33 79.307 182.61C79.307 182.917 79.2154 183.185 79.032 183.415C78.8487 183.642 78.6104 183.815 78.317 183.935C78.027 184.055 77.7154 184.108 77.382 184.095ZM80.2953 179H81.1353V184H80.2953V179ZM80.7253 178.185C80.592 178.185 80.4803 178.142 80.3903 178.055C80.3003 177.968 80.2553 177.86 80.2553 177.73C80.2553 177.6 80.3003 177.492 80.3903 177.405C80.4803 177.318 80.5903 177.275 80.7203 177.275C80.8503 177.275 80.9603 177.318 81.0503 177.405C81.1403 177.492 81.1853 177.6 81.1853 177.73C81.1853 177.86 81.1403 177.968 81.0503 178.055C80.9636 178.142 80.8553 178.185 80.7253 178.185ZM86.927 180.89V184H86.087V181.075C86.087 180.822 86.0254 180.592 85.902 180.385C85.7787 180.178 85.6137 180.015 85.407 179.895C85.2004 179.772 84.9704 179.71 84.717 179.71C84.467 179.71 84.237 179.772 84.027 179.895C83.8204 180.015 83.6554 180.178 83.532 180.385C83.4087 180.592 83.347 180.822 83.347 181.075V184H82.507V179H83.347V179.625C83.5237 179.392 83.747 179.207 84.017 179.07C84.287 178.93 84.5804 178.86 84.897 178.86C85.2704 178.86 85.6104 178.952 85.917 179.135C86.227 179.315 86.472 179.558 86.652 179.865C86.8354 180.172 86.927 180.513 86.927 180.89ZM88.127 179H88.967V184H88.127V179ZM88.557 178.185C88.4236 178.185 88.312 178.142 88.222 178.055C88.132 177.968 88.087 177.86 88.087 177.73C88.087 177.6 88.132 177.492 88.222 177.405C88.312 177.318 88.422 177.275 88.552 177.275C88.682 177.275 88.792 177.318 88.882 177.405C88.972 177.492 89.017 177.6 89.017 177.73C89.017 177.86 88.972 177.968 88.882 178.055C88.7953 178.142 88.687 178.185 88.557 178.185ZM94.7587 180.89V184H93.9187V181.075C93.9187 180.822 93.857 180.592 93.7337 180.385C93.6103 180.178 93.4453 180.015 93.2387 179.895C93.032 179.772 92.802 179.71 92.5487 179.71C92.2987 179.71 92.0687 179.772 91.8587 179.895C91.652 180.015 91.487 180.178 91.3637 180.385C91.2403 180.592 91.1787 180.822 91.1787 181.075V184H90.3387V179H91.1787V179.625C91.3553 179.392 91.5787 179.207 91.8487 179.07C92.1187 178.93 92.412 178.86 92.7287 178.86C93.102 178.86 93.442 178.952 93.7487 179.135C94.0587 179.315 94.3037 179.558 94.4837 179.865C94.667 180.172 94.7587 180.513 94.7587 180.89ZM99.7659 179H100.606V184.16C100.606 184.49 100.534 184.797 100.391 185.08C100.251 185.367 100.061 185.615 99.8209 185.825C99.5809 186.038 99.3076 186.203 99.0009 186.32C98.6943 186.44 98.3743 186.5 98.0409 186.5C97.6943 186.5 97.3593 186.422 97.0359 186.265C96.7126 186.112 96.4293 185.905 96.1859 185.645C95.9459 185.388 95.7726 185.1 95.6659 184.78L96.4359 184.43C96.4993 184.66 96.6126 184.867 96.7759 185.05C96.9426 185.237 97.1359 185.383 97.3559 185.49C97.5793 185.6 97.8076 185.655 98.0409 185.655C98.2609 185.655 98.4726 185.617 98.6759 185.54C98.8826 185.463 99.0676 185.357 99.2309 185.22C99.3976 185.087 99.5276 184.928 99.6209 184.745C99.7176 184.565 99.7659 184.37 99.7659 184.16V183.165C99.5959 183.452 99.3709 183.685 99.0909 183.865C98.8143 184.042 98.4909 184.13 98.1209 184.13C97.7676 184.13 97.4359 184.062 97.1259 183.925C96.8159 183.788 96.5443 183.6 96.3109 183.36C96.0776 183.117 95.8943 182.837 95.7609 182.52C95.6276 182.203 95.5609 181.863 95.5609 181.5C95.5609 181.137 95.6276 180.797 95.7609 180.48C95.8943 180.16 96.0776 179.88 96.3109 179.64C96.5443 179.397 96.8159 179.207 97.1259 179.07C97.4359 178.933 97.7676 178.865 98.1209 178.865C98.4909 178.865 98.8143 178.953 99.0909 179.13C99.3709 179.307 99.5959 179.54 99.7659 179.83V179ZM98.1259 183.315C98.4493 183.315 98.7293 183.232 98.9659 183.065C99.2059 182.898 99.3909 182.677 99.5209 182.4C99.6509 182.123 99.7159 181.823 99.7159 181.5C99.7159 181.167 99.6493 180.863 99.5159 180.59C99.3859 180.313 99.2009 180.093 98.9609 179.93C98.7243 179.763 98.4459 179.68 98.1259 179.68C97.8126 179.68 97.5259 179.762 97.2659 179.925C97.0059 180.088 96.7993 180.308 96.6459 180.585C96.4959 180.858 96.4209 181.163 96.4209 181.5C96.4209 181.837 96.4976 182.143 96.6509 182.42C96.8076 182.693 97.0143 182.912 97.2709 183.075C97.5309 183.235 97.8159 183.315 98.1259 183.315ZM104.611 179H105.451V184H104.611V179ZM105.041 178.185C104.907 178.185 104.796 178.142 104.706 178.055C104.616 177.968 104.571 177.86 104.571 177.73C104.571 177.6 104.616 177.492 104.706 177.405C104.796 177.318 104.906 177.275 105.036 177.275C105.166 177.275 105.276 177.318 105.366 177.405C105.456 177.492 105.501 177.6 105.501 177.73C105.501 177.86 105.456 177.968 105.366 178.055C105.279 178.142 105.171 178.185 105.041 178.185ZM108.328 184.095C108.058 184.085 107.794 184.035 107.538 183.945C107.284 183.852 107.061 183.727 106.868 183.57C106.678 183.41 106.539 183.227 106.453 183.02L107.173 182.71C107.223 182.823 107.313 182.93 107.443 183.03C107.573 183.13 107.723 183.21 107.893 183.27C108.063 183.33 108.234 183.36 108.408 183.36C108.591 183.36 108.763 183.332 108.923 183.275C109.083 183.218 109.213 183.135 109.313 183.025C109.416 182.912 109.468 182.777 109.468 182.62C109.468 182.453 109.411 182.323 109.298 182.23C109.188 182.133 109.048 182.058 108.878 182.005C108.711 181.948 108.541 181.895 108.368 181.845C108.024 181.758 107.718 181.655 107.448 181.535C107.178 181.412 106.964 181.257 106.808 181.07C106.654 180.88 106.578 180.638 106.578 180.345C106.578 180.035 106.663 179.767 106.833 179.54C107.006 179.313 107.233 179.138 107.513 179.015C107.793 178.892 108.093 178.83 108.413 178.83C108.816 178.83 109.184 178.917 109.518 179.09C109.851 179.263 110.099 179.498 110.263 179.795L109.588 180.19C109.531 180.07 109.444 179.965 109.328 179.875C109.211 179.782 109.078 179.708 108.928 179.655C108.778 179.602 108.624 179.573 108.468 179.57C108.274 179.563 108.093 179.588 107.923 179.645C107.756 179.702 107.621 179.788 107.518 179.905C107.418 180.018 107.368 180.16 107.368 180.33C107.368 180.497 107.421 180.623 107.528 180.71C107.638 180.797 107.779 180.867 107.953 180.92C108.129 180.97 108.321 181.028 108.528 181.095C108.831 181.192 109.114 181.303 109.378 181.43C109.641 181.557 109.853 181.715 110.013 181.905C110.176 182.095 110.256 182.33 110.253 182.61C110.253 182.917 110.161 183.185 109.978 183.415C109.794 183.642 109.556 183.815 109.263 183.935C108.973 184.055 108.661 184.108 108.328 184.095ZM111.309 184V179H112.149V179.625C112.326 179.392 112.548 179.207 112.814 179.07C113.084 178.93 113.378 178.86 113.694 178.86C114.064 178.86 114.403 178.95 114.709 179.13C115.016 179.31 115.258 179.548 115.434 179.845C115.611 179.548 115.851 179.31 116.154 179.13C116.461 178.95 116.798 178.86 117.164 178.86C117.541 178.86 117.883 178.952 118.189 179.135C118.496 179.315 118.739 179.558 118.919 179.865C119.103 180.172 119.194 180.513 119.194 180.89V184H118.354V181.09C118.354 180.843 118.294 180.615 118.174 180.405C118.054 180.195 117.893 180.027 117.689 179.9C117.486 179.773 117.261 179.71 117.014 179.71C116.768 179.71 116.543 179.77 116.339 179.89C116.136 180.007 115.974 180.17 115.854 180.38C115.734 180.587 115.674 180.823 115.674 181.09V184H114.834V181.09C114.834 180.823 114.774 180.587 114.654 180.38C114.534 180.17 114.371 180.007 114.164 179.89C113.961 179.77 113.736 179.71 113.489 179.71C113.246 179.71 113.021 179.773 112.814 179.9C112.611 180.027 112.449 180.195 112.329 180.405C112.209 180.615 112.149 180.843 112.149 181.09V184H111.309ZM120.396 179H121.236V184H120.396V179ZM120.826 178.185C120.693 178.185 120.581 178.142 120.491 178.055C120.401 177.968 120.356 177.86 120.356 177.73C120.356 177.6 120.401 177.492 120.491 177.405C120.581 177.318 120.691 177.275 120.821 177.275C120.951 177.275 121.061 177.318 121.151 177.405C121.241 177.492 121.286 177.6 121.286 177.73C121.286 177.86 121.241 177.968 121.151 178.055C121.064 178.142 120.956 178.185 120.826 178.185Z" fill="#FAFAFA"/>
<path d="M31.575 201.829C31.295 201.829 31.0547 201.731 30.854 201.535C30.658 201.334 30.56 201.087 30.56 200.793C30.56 200.513 30.658 200.273 30.854 200.072C31.0547 199.871 31.295 199.771 31.575 199.771C31.8643 199.771 32.107 199.871 32.303 200.072C32.5037 200.273 32.604 200.513 32.604 200.793C32.604 201.087 32.5037 201.334 32.303 201.535C32.107 201.731 31.8643 201.829 31.575 201.829ZM34.9332 201.829C34.6532 201.829 34.4129 201.731 34.2122 201.535C34.0162 201.334 33.9182 201.087 33.9182 200.793C33.9182 200.513 34.0162 200.273 34.2122 200.072C34.4129 199.871 34.6532 199.771 34.9332 199.771C35.2225 199.771 35.4652 199.871 35.6612 200.072C35.8619 200.273 35.9622 200.513 35.9622 200.793C35.9622 201.087 35.8619 201.334 35.6612 201.535C35.4652 201.731 35.2225 201.829 34.9332 201.829ZM38.2914 201.829C38.0114 201.829 37.7711 201.731 37.5704 201.535C37.3744 201.334 37.2764 201.087 37.2764 200.793C37.2764 200.513 37.3744 200.273 37.5704 200.072C37.7711 199.871 38.0114 199.771 38.2914 199.771C38.5807 199.771 38.8234 199.871 39.0194 200.072C39.2201 200.273 39.3204 200.513 39.3204 200.793C39.3204 201.087 39.2201 201.334 39.0194 201.535C38.8234 201.731 38.5807 201.829 38.2914 201.829ZM41.6496 201.829C41.3696 201.829 41.1293 201.731 40.9286 201.535C40.7326 201.334 40.6346 201.087 40.6346 200.793C40.6346 200.513 40.7326 200.273 40.9286 200.072C41.1293 199.871 41.3696 199.771 41.6496 199.771C41.9389 199.771 42.1816 199.871 42.3776 200.072C42.5783 200.273 42.6786 200.513 42.6786 200.793C42.6786 201.087 42.5783 201.334 42.3776 201.535C42.1816 201.731 41.9389 201.829 41.6496 201.829ZM48.5711 201.829C48.2911 201.829 48.0508 201.731 47.8501 201.535C47.6541 201.334 47.5561 201.087 47.5561 200.793C47.5561 200.513 47.6541 200.273 47.8501 200.072C48.0508 199.871 48.2911 199.771 48.5711 199.771C48.8604 199.771 49.1031 199.871 49.2991 200.072C49.4998 200.273 49.6001 200.513 49.6001 200.793C49.6001 201.087 49.4998 201.334 49.2991 201.535C49.1031 201.731 48.8604 201.829 48.5711 201.829ZM51.9293 201.829C51.6493 201.829 51.409 201.731 51.2083 201.535C51.0123 201.334 50.9143 201.087 50.9143 200.793C50.9143 200.513 51.0123 200.273 51.2083 200.072C51.409 199.871 51.6493 199.771 51.9293 199.771C52.2186 199.771 52.4613 199.871 52.6573 200.072C52.858 200.273 52.9583 200.513 52.9583 200.793C52.9583 201.087 52.858 201.334 52.6573 201.535C52.4613 201.731 52.2186 201.829 51.9293 201.829ZM55.2875 201.829C55.0075 201.829 54.7672 201.731 54.5665 201.535C54.3705 201.334 54.2725 201.087 54.2725 200.793C54.2725 200.513 54.3705 200.273 54.5665 200.072C54.7672 199.871 55.0075 199.771 55.2875 199.771C55.5768 199.771 55.8195 199.871 56.0155 200.072C56.2162 200.273 56.3165 200.513 56.3165 200.793C56.3165 201.087 56.2162 201.334 56.0155 201.535C55.8195 201.731 55.5768 201.829 55.2875 201.829ZM58.6457 201.829C58.3657 201.829 58.1254 201.731 57.9247 201.535C57.7287 201.334 57.6307 201.087 57.6307 200.793C57.6307 200.513 57.7287 200.273 57.9247 200.072C58.1254 199.871 58.3657 199.771 58.6457 199.771C58.935 199.771 59.1777 199.871 59.3737 200.072C59.5744 200.273 59.6747 200.513 59.6747 200.793C59.6747 201.087 59.5744 201.334 59.3737 201.535C59.1777 201.731 58.935 201.829 58.6457 201.829Z" fill="#FAFAFA"/>
<path d="M181.365 184.145L180.545 183.325C180.259 183.572 179.934 183.765 179.57 183.905C179.21 184.042 178.829 184.11 178.425 184.11C177.949 184.11 177.502 184.017 177.085 183.83C176.669 183.64 176.302 183.38 175.985 183.05C175.669 182.717 175.42 182.33 175.24 181.89C175.064 181.45 174.975 180.98 174.975 180.48C174.975 179.98 175.064 179.512 175.24 179.075C175.42 178.635 175.669 178.248 175.985 177.915C176.302 177.582 176.669 177.322 177.085 177.135C177.502 176.945 177.949 176.85 178.425 176.85C178.902 176.85 179.347 176.945 179.76 177.135C180.177 177.322 180.544 177.582 180.86 177.915C181.177 178.248 181.424 178.635 181.6 179.075C181.78 179.512 181.87 179.98 181.87 180.48C181.87 180.907 181.804 181.31 181.67 181.69C181.54 182.07 181.359 182.415 181.125 182.725L181.96 183.55L181.365 184.145ZM178.425 183.27C178.699 183.27 178.967 183.223 179.23 183.13C179.494 183.033 179.729 182.895 179.935 182.715L179.005 181.79L179.6 181.19L180.5 182.1C180.674 181.87 180.805 181.617 180.895 181.34C180.985 181.06 181.03 180.773 181.03 180.48C181.03 180.097 180.962 179.737 180.825 179.4C180.692 179.063 180.505 178.767 180.265 178.51C180.025 178.253 179.747 178.053 179.43 177.91C179.117 177.763 178.782 177.69 178.425 177.69C178.062 177.69 177.722 177.765 177.405 177.915C177.092 178.062 176.815 178.265 176.575 178.525C176.339 178.782 176.152 179.078 176.015 179.415C175.882 179.748 175.815 180.103 175.815 180.48C175.815 180.863 175.884 181.223 176.02 181.56C176.157 181.897 176.345 182.195 176.585 182.455C176.825 182.712 177.102 182.912 177.415 183.055C177.732 183.198 178.069 183.27 178.425 183.27ZM182.88 182.1V179H183.72V181.915C183.72 182.168 183.782 182.398 183.905 182.605C184.029 182.812 184.194 182.977 184.4 183.1C184.61 183.22 184.84 183.28 185.09 183.28C185.344 183.28 185.572 183.22 185.775 183.1C185.982 182.977 186.147 182.812 186.27 182.605C186.394 182.398 186.455 182.168 186.455 181.915V179H187.295L187.3 184H186.46L186.455 183.365C186.279 183.598 186.055 183.785 185.785 183.925C185.515 184.062 185.224 184.13 184.91 184.13C184.537 184.13 184.195 184.04 183.885 183.86C183.579 183.677 183.334 183.432 183.15 183.125C182.97 182.818 182.88 182.477 182.88 182.1ZM191.842 179H192.732L189.997 186.5H189.107L190.012 184L188.217 179H189.137L190.432 182.845L191.842 179ZM193.793 179H194.633V184H193.793V179ZM194.223 178.185C194.089 178.185 193.978 178.142 193.888 178.055C193.798 177.968 193.753 177.86 193.753 177.73C193.753 177.6 193.798 177.492 193.888 177.405C193.978 177.318 194.088 177.275 194.218 177.275C194.348 177.275 194.458 177.318 194.548 177.405C194.638 177.492 194.683 177.6 194.683 177.73C194.683 177.86 194.638 177.968 194.548 178.055C194.461 178.142 194.353 178.185 194.223 178.185ZM199.99 176.5H200.83V184H199.99V183.15C199.82 183.443 199.592 183.68 199.305 183.86C199.019 184.04 198.682 184.13 198.295 184.13C197.932 184.13 197.592 184.062 197.275 183.925C196.959 183.788 196.679 183.6 196.435 183.36C196.195 183.117 196.007 182.837 195.87 182.52C195.734 182.203 195.665 181.863 195.665 181.5C195.665 181.137 195.734 180.797 195.87 180.48C196.007 180.16 196.195 179.88 196.435 179.64C196.679 179.397 196.959 179.207 197.275 179.07C197.592 178.933 197.932 178.865 198.295 178.865C198.682 178.865 199.019 178.955 199.305 179.135C199.592 179.315 199.82 179.552 199.99 179.845V176.5ZM198.305 183.315C198.635 183.315 198.92 183.235 199.16 183.075C199.404 182.912 199.59 182.692 199.72 182.415C199.854 182.138 199.92 181.833 199.92 181.5C199.92 181.16 199.854 180.853 199.72 180.58C199.587 180.303 199.399 180.085 199.155 179.925C198.915 179.762 198.632 179.68 198.305 179.68C197.975 179.68 197.675 179.762 197.405 179.925C197.139 180.088 196.925 180.308 196.765 180.585C196.605 180.858 196.525 181.163 196.525 181.5C196.525 181.837 196.607 182.143 196.77 182.42C196.934 182.693 197.15 182.912 197.42 183.075C197.69 183.235 197.985 183.315 198.305 183.315ZM206.201 179H207.041V184H206.201L206.166 183.155C206.009 183.445 205.793 183.68 205.516 183.86C205.243 184.04 204.916 184.13 204.536 184.13C204.169 184.13 203.826 184.062 203.506 183.925C203.186 183.785 202.903 183.593 202.656 183.35C202.413 183.103 202.223 182.82 202.086 182.5C201.949 182.18 201.881 181.835 201.881 181.465C201.881 181.108 201.948 180.772 202.081 180.455C202.214 180.138 202.399 179.862 202.636 179.625C202.876 179.385 203.153 179.198 203.466 179.065C203.779 178.928 204.116 178.86 204.476 178.86C204.869 178.86 205.214 178.953 205.511 179.14C205.808 179.323 206.048 179.562 206.231 179.855L206.201 179ZM204.521 183.315C204.851 183.315 205.136 183.235 205.376 183.075C205.619 182.912 205.806 182.692 205.936 182.415C206.069 182.138 206.136 181.833 206.136 181.5C206.136 181.16 206.069 180.853 205.936 180.58C205.803 180.303 205.614 180.085 205.371 179.925C205.131 179.762 204.848 179.68 204.521 179.68C204.191 179.68 203.891 179.762 203.621 179.925C203.351 180.088 203.136 180.308 202.976 180.585C202.819 180.858 202.741 181.163 202.741 181.5C202.741 181.837 202.823 182.143 202.986 182.42C203.149 182.693 203.366 182.912 203.636 183.075C203.906 183.235 204.201 183.315 204.521 183.315ZM212.048 179H212.888V184.16C212.888 184.49 212.816 184.797 212.673 185.08C212.533 185.367 212.343 185.615 212.103 185.825C211.863 186.038 211.589 186.203 211.283 186.32C210.976 186.44 210.656 186.5 210.323 186.5C209.976 186.5 209.641 186.422 209.318 186.265C208.994 186.112 208.711 185.905 208.468 185.645C208.228 185.388 208.054 185.1 207.948 184.78L208.718 184.43C208.781 184.66 208.894 184.867 209.058 185.05C209.224 185.237 209.418 185.383 209.638 185.49C209.861 185.6 210.089 185.655 210.323 185.655C210.543 185.655 210.754 185.617 210.958 185.54C211.164 185.463 211.349 185.357 211.513 185.22C211.679 185.087 211.809 184.928 211.903 184.745C211.999 184.565 212.048 184.37 212.048 184.16V183.165C211.878 183.452 211.653 183.685 211.373 183.865C211.096 184.042 210.773 184.13 210.403 184.13C210.049 184.13 209.718 184.062 209.408 183.925C209.098 183.788 208.826 183.6 208.593 183.36C208.359 183.117 208.176 182.837 208.043 182.52C207.909 182.203 207.843 181.863 207.843 181.5C207.843 181.137 207.909 180.797 208.043 180.48C208.176 180.16 208.359 179.88 208.593 179.64C208.826 179.397 209.098 179.207 209.408 179.07C209.718 178.933 210.049 178.865 210.403 178.865C210.773 178.865 211.096 178.953 211.373 179.13C211.653 179.307 211.878 179.54 212.048 179.83V179ZM210.408 183.315C210.731 183.315 211.011 183.232 211.248 183.065C211.488 182.898 211.673 182.677 211.803 182.4C211.933 182.123 211.998 181.823 211.998 181.5C211.998 181.167 211.931 180.863 211.798 180.59C211.668 180.313 211.483 180.093 211.243 179.93C211.006 179.763 210.728 179.68 210.408 179.68C210.094 179.68 209.808 179.762 209.548 179.925C209.288 180.088 209.081 180.308 208.928 180.585C208.778 180.858 208.703 181.163 208.703 181.5C208.703 181.837 208.779 182.143 208.933 182.42C209.089 182.693 209.296 182.912 209.553 183.075C209.813 183.235 210.098 183.315 210.408 183.315ZM214.222 179H215.062V184H214.222V179ZM214.652 178.185C214.518 178.185 214.407 178.142 214.317 178.055C214.227 177.968 214.182 177.86 214.182 177.73C214.182 177.6 214.227 177.492 214.317 177.405C214.407 177.318 214.517 177.275 214.647 177.275C214.777 177.275 214.887 177.318 214.977 177.405C215.067 177.492 215.112 177.6 215.112 177.73C215.112 177.86 215.067 177.968 214.977 178.055C214.89 178.142 214.782 178.185 214.652 178.185ZM220.59 184.095C220.32 184.085 220.057 184.035 219.8 183.945C219.547 183.852 219.323 183.727 219.13 183.57C218.94 183.41 218.802 183.227 218.715 183.02L219.435 182.71C219.485 182.823 219.575 182.93 219.705 183.03C219.835 183.13 219.985 183.21 220.155 183.27C220.325 183.33 220.497 183.36 220.67 183.36C220.853 183.36 221.025 183.332 221.185 183.275C221.345 183.218 221.475 183.135 221.575 183.025C221.678 182.912 221.73 182.777 221.73 182.62C221.73 182.453 221.673 182.323 221.56 182.23C221.45 182.133 221.31 182.058 221.14 182.005C220.973 181.948 220.803 181.895 220.63 181.845C220.287 181.758 219.98 181.655 219.71 181.535C219.44 181.412 219.227 181.257 219.07 181.07C218.917 180.88 218.84 180.638 218.84 180.345C218.84 180.035 218.925 179.767 219.095 179.54C219.268 179.313 219.495 179.138 219.775 179.015C220.055 178.892 220.355 178.83 220.675 178.83C221.078 178.83 221.447 178.917 221.78 179.09C222.113 179.263 222.362 179.498 222.525 179.795L221.85 180.19C221.793 180.07 221.707 179.965 221.59 179.875C221.473 179.782 221.34 179.708 221.19 179.655C221.04 179.602 220.887 179.573 220.73 179.57C220.537 179.563 220.355 179.588 220.185 179.645C220.018 179.702 219.883 179.788 219.78 179.905C219.68 180.018 219.63 180.16 219.63 180.33C219.63 180.497 219.683 180.623 219.79 180.71C219.9 180.797 220.042 180.867 220.215 180.92C220.392 180.97 220.583 181.028 220.79 181.095C221.093 181.192 221.377 181.303 221.64 181.43C221.903 181.557 222.115 181.715 222.275 181.905C222.438 182.095 222.518 182.33 222.515 182.61C222.515 182.917 222.423 183.185 222.24 183.415C222.057 183.642 221.818 183.815 221.525 183.935C221.235 184.055 220.923 184.108 220.59 184.095ZM227.543 179H228.383V184H227.543L227.508 183.155C227.351 183.445 227.135 183.68 226.858 183.86C226.585 184.04 226.258 184.13 225.878 184.13C225.511 184.13 225.168 184.062 224.848 183.925C224.528 183.785 224.245 183.593 223.998 183.35C223.755 183.103 223.565 182.82 223.428 182.5C223.291 182.18 223.223 181.835 223.223 181.465C223.223 181.108 223.29 180.772 223.423 180.455C223.556 180.138 223.741 179.862 223.978 179.625C224.218 179.385 224.495 179.198 224.808 179.065C225.121 178.928 225.458 178.86 225.818 178.86C226.211 178.86 226.556 178.953 226.853 179.14C227.15 179.323 227.39 179.562 227.573 179.855L227.543 179ZM225.863 183.315C226.193 183.315 226.478 183.235 226.718 183.075C226.961 182.912 227.148 182.692 227.278 182.415C227.411 182.138 227.478 181.833 227.478 181.5C227.478 181.16 227.411 180.853 227.278 180.58C227.145 180.303 226.956 180.085 226.713 179.925C226.473 179.762 226.19 179.68 225.863 179.68C225.533 179.68 225.233 179.762 224.963 179.925C224.693 180.088 224.478 180.308 224.318 180.585C224.161 180.858 224.083 181.163 224.083 181.5C224.083 181.837 224.165 182.143 224.328 182.42C224.491 182.693 224.708 182.912 224.978 183.075C225.248 183.235 225.543 183.315 225.863 183.315ZM234.002 180.89V184H233.162V181.075C233.162 180.822 233.101 180.592 232.977 180.385C232.854 180.178 232.689 180.015 232.482 179.895C232.276 179.772 232.046 179.71 231.792 179.71C231.542 179.71 231.312 179.772 231.102 179.895C230.896 180.015 230.731 180.178 230.607 180.385C230.484 180.592 230.422 180.822 230.422 181.075V184H229.582V179H230.422V179.625C230.599 179.392 230.822 179.207 231.092 179.07C231.362 178.93 231.656 178.86 231.972 178.86C232.346 178.86 232.686 178.952 232.992 179.135C233.302 179.315 233.547 179.558 233.727 179.865C233.911 180.172 234.002 180.513 234.002 180.89ZM239.124 179H239.964V184H239.124L239.089 183.155C238.933 183.445 238.716 183.68 238.439 183.86C238.166 184.04 237.839 184.13 237.459 184.13C237.093 184.13 236.749 184.062 236.429 183.925C236.109 183.785 235.826 183.593 235.579 183.35C235.336 183.103 235.146 182.82 235.009 182.5C234.873 182.18 234.804 181.835 234.804 181.465C234.804 181.108 234.871 180.772 235.004 180.455C235.138 180.138 235.323 179.862 235.559 179.625C235.799 179.385 236.076 179.198 236.389 179.065C236.703 178.928 237.039 178.86 237.399 178.86C237.793 178.86 238.138 178.953 238.434 179.14C238.731 179.323 238.971 179.562 239.154 179.855L239.124 179ZM237.444 183.315C237.774 183.315 238.059 183.235 238.299 183.075C238.543 182.912 238.729 182.692 238.859 182.415C238.993 182.138 239.059 181.833 239.059 181.5C239.059 181.16 238.993 180.853 238.859 180.58C238.726 180.303 238.538 180.085 238.294 179.925C238.054 179.762 237.771 179.68 237.444 179.68C237.114 179.68 236.814 179.762 236.544 179.925C236.274 180.088 236.059 180.308 235.899 180.585C235.743 180.858 235.664 181.163 235.664 181.5C235.664 181.837 235.746 182.143 235.909 182.42C236.073 182.693 236.289 182.912 236.559 183.075C236.829 183.235 237.124 183.315 237.444 183.315ZM244.971 179H245.811V184.16C245.811 184.49 245.74 184.797 245.596 185.08C245.456 185.367 245.266 185.615 245.026 185.825C244.786 186.038 244.513 186.203 244.206 186.32C243.9 186.44 243.58 186.5 243.246 186.5C242.9 186.5 242.565 186.422 242.241 186.265C241.918 186.112 241.635 185.905 241.391 185.645C241.151 185.388 240.978 185.1 240.871 184.78L241.641 184.43C241.705 184.66 241.818 184.867 241.981 185.05C242.148 185.237 242.341 185.383 242.561 185.49C242.785 185.6 243.013 185.655 243.246 185.655C243.466 185.655 243.678 185.617 243.881 185.54C244.088 185.463 244.273 185.357 244.436 185.22C244.603 185.087 244.733 184.928 244.826 184.745C244.923 184.565 244.971 184.37 244.971 184.16V183.165C244.801 183.452 244.576 183.685 244.296 183.865C244.02 184.042 243.696 184.13 243.326 184.13C242.973 184.13 242.641 184.062 242.331 183.925C242.021 183.788 241.75 183.6 241.516 183.36C241.283 183.117 241.1 182.837 240.966 182.52C240.833 182.203 240.766 181.863 240.766 181.5C240.766 181.137 240.833 180.797 240.966 180.48C241.1 180.16 241.283 179.88 241.516 179.64C241.75 179.397 242.021 179.207 242.331 179.07C242.641 178.933 242.973 178.865 243.326 178.865C243.696 178.865 244.02 178.953 244.296 179.13C244.576 179.307 244.801 179.54 244.971 179.83V179ZM243.331 183.315C243.655 183.315 243.935 183.232 244.171 183.065C244.411 182.898 244.596 182.677 244.726 182.4C244.856 182.123 244.921 181.823 244.921 181.5C244.921 181.167 244.855 180.863 244.721 180.59C244.591 180.313 244.406 180.093 244.166 179.93C243.93 179.763 243.651 179.68 243.331 179.68C243.018 179.68 242.731 179.762 242.471 179.925C242.211 180.088 242.005 180.308 241.851 180.585C241.701 180.858 241.626 181.163 241.626 181.5C241.626 181.837 241.703 182.143 241.856 182.42C242.013 182.693 242.22 182.912 242.476 183.075C242.736 183.235 243.021 183.315 243.331 183.315ZM251.165 179H252.005V184H251.165L251.13 183.155C250.973 183.445 250.757 183.68 250.48 183.86C250.207 184.04 249.88 184.13 249.5 184.13C249.133 184.13 248.79 184.062 248.47 183.925C248.15 183.785 247.867 183.593 247.62 183.35C247.377 183.103 247.187 182.82 247.05 182.5C246.913 182.18 246.845 181.835 246.845 181.465C246.845 181.108 246.912 180.772 247.045 180.455C247.178 180.138 247.363 179.862 247.6 179.625C247.84 179.385 248.117 179.198 248.43 179.065C248.743 178.928 249.08 178.86 249.44 178.86C249.833 178.86 250.178 178.953 250.475 179.14C250.772 179.323 251.012 179.562 251.195 179.855L251.165 179ZM249.485 183.315C249.815 183.315 250.1 183.235 250.34 183.075C250.583 182.912 250.77 182.692 250.9 182.415C251.033 182.138 251.1 181.833 251.1 181.5C251.1 181.16 251.033 180.853 250.9 180.58C250.767 180.303 250.578 180.085 250.335 179.925C250.095 179.762 249.812 179.68 249.485 179.68C249.155 179.68 248.855 179.762 248.585 179.925C248.315 180.088 248.1 180.308 247.94 180.585C247.783 180.858 247.705 181.163 247.705 181.5C247.705 181.837 247.787 182.143 247.95 182.42C248.113 182.693 248.33 182.912 248.6 183.075C248.87 183.235 249.165 183.315 249.485 183.315ZM256.552 182.68L257.302 183.085C257.075 183.402 256.787 183.655 256.437 183.845C256.09 184.035 255.714 184.13 255.307 184.13C254.847 184.13 254.427 184.012 254.047 183.775C253.67 183.538 253.369 183.222 253.142 182.825C252.919 182.425 252.807 181.983 252.807 181.5C252.807 181.133 252.872 180.792 253.002 180.475C253.132 180.155 253.31 179.875 253.537 179.635C253.767 179.392 254.034 179.202 254.337 179.065C254.64 178.928 254.964 178.86 255.307 178.86C255.714 178.86 256.09 178.955 256.437 179.145C256.787 179.335 257.075 179.59 257.302 179.91L256.552 180.315C256.392 180.118 256.202 179.967 255.982 179.86C255.762 179.753 255.537 179.7 255.307 179.7C254.997 179.7 254.715 179.783 254.462 179.95C254.212 180.113 254.014 180.332 253.867 180.605C253.72 180.878 253.647 181.177 253.647 181.5C253.647 181.823 253.72 182.122 253.867 182.395C254.017 182.665 254.217 182.882 254.467 183.045C254.72 183.208 255 183.29 255.307 183.29C255.554 183.29 255.785 183.233 256.002 183.12C256.219 183.007 256.402 182.86 256.552 182.68ZM262.737 180.89V184H261.897V181.075C261.897 180.822 261.835 180.592 261.712 180.385C261.588 180.178 261.423 180.015 261.217 179.895C261.01 179.772 260.78 179.71 260.527 179.71C260.277 179.71 260.047 179.772 259.837 179.895C259.63 180.015 259.465 180.178 259.342 180.385C259.218 180.592 259.157 180.822 259.157 181.075V184H258.317V176.5H259.157V179.625C259.333 179.392 259.557 179.207 259.827 179.07C260.097 178.93 260.39 178.86 260.707 178.86C261.08 178.86 261.42 178.952 261.727 179.135C262.037 179.315 262.282 179.558 262.462 179.865C262.645 180.172 262.737 180.513 262.737 180.89ZM267.859 179H268.699V184H267.859L267.824 183.155C267.667 183.445 267.451 183.68 267.174 183.86C266.901 184.04 266.574 184.13 266.194 184.13C265.827 184.13 265.484 184.062 265.164 183.925C264.844 183.785 264.561 183.593 264.314 183.35C264.071 183.103 263.881 182.82 263.744 182.5C263.607 182.18 263.539 181.835 263.539 181.465C263.539 181.108 263.606 180.772 263.739 180.455C263.872 180.138 264.057 179.862 264.294 179.625C264.534 179.385 264.811 179.198 265.124 179.065C265.437 178.928 265.774 178.86 266.134 178.86C266.527 178.86 266.872 178.953 267.169 179.14C267.466 179.323 267.706 179.562 267.889 179.855L267.859 179ZM266.179 183.315C266.509 183.315 266.794 183.235 267.034 183.075C267.277 182.912 267.464 182.692 267.594 182.415C267.727 182.138 267.794 181.833 267.794 181.5C267.794 181.16 267.727 180.853 267.594 180.58C267.461 180.303 267.272 180.085 267.029 179.925C266.789 179.762 266.506 179.68 266.179 179.68C265.849 179.68 265.549 179.762 265.279 179.925C265.009 180.088 264.794 180.308 264.634 180.585C264.477 180.858 264.399 181.163 264.399 181.5C264.399 181.837 264.481 182.143 264.644 182.42C264.807 182.693 265.024 182.912 265.294 183.075C265.564 183.235 265.859 183.315 266.179 183.315ZM273.636 177.765V179H275.101V179.84H273.636V184H272.796V179.84H272.151V179H272.796V177.765C272.796 177.508 272.857 177.277 272.981 177.07C273.107 176.86 273.276 176.693 273.486 176.57C273.699 176.443 273.932 176.38 274.186 176.38C274.372 176.38 274.554 176.418 274.731 176.495C274.907 176.568 275.064 176.678 275.201 176.825L274.601 177.42C274.554 177.357 274.492 177.308 274.416 177.275C274.342 177.238 274.266 177.22 274.186 177.22C274.036 177.22 273.906 177.273 273.796 177.38C273.689 177.487 273.636 177.615 273.636 177.765ZM278.192 184.13C277.732 184.13 277.312 184.012 276.932 183.775C276.555 183.538 276.253 183.222 276.027 182.825C275.803 182.425 275.692 181.983 275.692 181.5C275.692 181.133 275.757 180.792 275.887 180.475C276.017 180.155 276.195 179.875 276.422 179.635C276.652 179.392 276.918 179.202 277.222 179.065C277.525 178.928 277.848 178.86 278.192 178.86C278.652 178.86 279.07 178.978 279.447 179.215C279.827 179.452 280.128 179.77 280.352 180.17C280.578 180.57 280.692 181.013 280.692 181.5C280.692 181.863 280.627 182.203 280.497 182.52C280.367 182.837 280.187 183.117 279.957 183.36C279.73 183.6 279.465 183.788 279.162 183.925C278.862 184.062 278.538 184.13 278.192 184.13ZM278.192 183.29C278.505 183.29 278.787 183.208 279.037 183.045C279.29 182.878 279.488 182.66 279.632 182.39C279.778 182.117 279.852 181.82 279.852 181.5C279.852 181.173 279.777 180.873 279.627 180.6C279.48 180.327 279.282 180.108 279.032 179.945C278.782 179.782 278.502 179.7 278.192 179.7C277.878 179.7 277.597 179.783 277.347 179.95C277.097 180.113 276.898 180.332 276.752 180.605C276.605 180.878 276.532 181.177 276.532 181.5C276.532 181.833 276.607 182.137 276.757 182.41C276.907 182.68 277.108 182.895 277.362 183.055C277.615 183.212 277.892 183.29 278.192 183.29ZM284.871 179H285.761L283.026 186.5H282.136L283.041 184L281.246 179H282.166L283.461 182.845L284.871 179ZM290.631 176.5H291.471V184H290.631V183.15C290.461 183.443 290.233 183.68 289.946 183.86C289.66 184.04 289.323 184.13 288.936 184.13C288.573 184.13 288.233 184.062 287.916 183.925C287.6 183.788 287.32 183.6 287.076 183.36C286.836 183.117 286.648 182.837 286.511 182.52C286.375 182.203 286.306 181.863 286.306 181.5C286.306 181.137 286.375 180.797 286.511 180.48C286.648 180.16 286.836 179.88 287.076 179.64C287.32 179.397 287.6 179.207 287.916 179.07C288.233 178.933 288.573 178.865 288.936 178.865C289.323 178.865 289.66 178.955 289.946 179.135C290.233 179.315 290.461 179.552 290.631 179.845V176.5ZM288.946 183.315C289.276 183.315 289.561 183.235 289.801 183.075C290.045 182.912 290.231 182.692 290.361 182.415C290.495 182.138 290.561 181.833 290.561 181.5C290.561 181.16 290.495 180.853 290.361 180.58C290.228 180.303 290.04 180.085 289.796 179.925C289.556 179.762 289.273 179.68 288.946 179.68C288.616 179.68 288.316 179.762 288.046 179.925C287.78 180.088 287.566 180.308 287.406 180.585C287.246 180.858 287.166 181.163 287.166 181.5C287.166 181.837 287.248 182.143 287.411 182.42C287.575 182.693 287.791 182.912 288.061 183.075C288.331 183.235 288.626 183.315 288.946 183.315ZM296.842 179H297.682V184H296.842L296.807 183.155C296.65 183.445 296.434 183.68 296.157 183.86C295.884 184.04 295.557 184.13 295.177 184.13C294.81 184.13 294.467 184.062 294.147 183.925C293.827 183.785 293.544 183.593 293.297 183.35C293.054 183.103 292.864 182.82 292.727 182.5C292.59 182.18 292.522 181.835 292.522 181.465C292.522 181.108 292.589 180.772 292.722 180.455C292.855 180.138 293.04 179.862 293.277 179.625C293.517 179.385 293.794 179.198 294.107 179.065C294.42 178.928 294.757 178.86 295.117 178.86C295.51 178.86 295.855 178.953 296.152 179.14C296.449 179.323 296.689 179.562 296.872 179.855L296.842 179ZM295.162 183.315C295.492 183.315 295.777 183.235 296.017 183.075C296.26 182.912 296.447 182.692 296.577 182.415C296.71 182.138 296.777 181.833 296.777 181.5C296.777 181.16 296.71 180.853 296.577 180.58C296.444 180.303 296.255 180.085 296.012 179.925C295.772 179.762 295.489 179.68 295.162 179.68C294.832 179.68 294.532 179.762 294.262 179.925C293.992 180.088 293.777 180.308 293.617 180.585C293.46 180.858 293.382 181.163 293.382 181.5C293.382 181.837 293.464 182.143 293.627 182.42C293.79 182.693 294.007 182.912 294.277 183.075C294.547 183.235 294.842 183.315 295.162 183.315ZM298.94 184V176.5H299.78V184H298.94ZM305.152 179H305.992V184H305.152L305.117 183.155C304.961 183.445 304.744 183.68 304.467 183.86C304.194 184.04 303.867 184.13 303.487 184.13C303.121 184.13 302.777 184.062 302.457 183.925C302.137 183.785 301.854 183.593 301.607 183.35C301.364 183.103 301.174 182.82 301.037 182.5C300.901 182.18 300.832 181.835 300.832 181.465C300.832 181.108 300.899 180.772 301.032 180.455C301.166 180.138 301.351 179.862 301.587 179.625C301.827 179.385 302.104 179.198 302.417 179.065C302.731 178.928 303.067 178.86 303.427 178.86C303.821 178.86 304.166 178.953 304.462 179.14C304.759 179.323 304.999 179.562 305.182 179.855L305.152 179ZM303.472 183.315C303.802 183.315 304.087 183.235 304.327 183.075C304.571 182.912 304.757 182.692 304.887 182.415C305.021 182.138 305.087 181.833 305.087 181.5C305.087 181.16 305.021 180.853 304.887 180.58C304.754 180.303 304.566 180.085 304.322 179.925C304.082 179.762 303.799 179.68 303.472 179.68C303.142 179.68 302.842 179.762 302.572 179.925C302.302 180.088 302.087 180.308 301.927 180.585C301.771 180.858 301.692 181.163 301.692 181.5C301.692 181.837 301.774 182.143 301.937 182.42C302.101 182.693 302.317 182.912 302.587 183.075C302.857 183.235 303.152 183.315 303.472 183.315ZM311.612 180.89V184H310.772V181.075C310.772 180.822 310.71 180.592 310.587 180.385C310.463 180.178 310.298 180.015 310.092 179.895C309.885 179.772 309.655 179.71 309.402 179.71C309.152 179.71 308.922 179.772 308.712 179.895C308.505 180.015 308.34 180.178 308.217 180.385C308.093 180.592 308.032 180.822 308.032 181.075V184H307.192V179H308.032V179.625C308.208 179.392 308.432 179.207 308.702 179.07C308.972 178.93 309.265 178.86 309.582 178.86C309.955 178.86 310.295 178.952 310.602 179.135C310.912 179.315 311.157 179.558 311.337 179.865C311.52 180.172 311.612 180.513 311.612 180.89ZM312.812 179H313.652V184H312.812V179ZM313.242 178.185C313.108 178.185 312.997 178.142 312.907 178.055C312.817 177.968 312.772 177.86 312.772 177.73C312.772 177.6 312.817 177.492 312.907 177.405C312.997 177.318 313.107 177.275 313.237 177.275C313.367 177.275 313.477 177.318 313.567 177.405C313.657 177.492 313.702 177.6 313.702 177.73C313.702 177.86 313.657 177.968 313.567 178.055C313.48 178.142 313.372 178.185 313.242 178.185ZM315.082 184V176.5H315.922V184H315.082ZM318.848 184.095C318.578 184.085 318.315 184.035 318.058 183.945C317.805 183.852 317.581 183.727 317.388 183.57C317.198 183.41 317.06 183.227 316.973 183.02L317.693 182.71C317.743 182.823 317.833 182.93 317.963 183.03C318.093 183.13 318.243 183.21 318.413 183.27C318.583 183.33 318.755 183.36 318.928 183.36C319.111 183.36 319.283 183.332 319.443 183.275C319.603 183.218 319.733 183.135 319.833 183.025C319.936 182.912 319.988 182.777 319.988 182.62C319.988 182.453 319.931 182.323 319.818 182.23C319.708 182.133 319.568 182.058 319.398 182.005C319.231 181.948 319.061 181.895 318.888 181.845C318.545 181.758 318.238 181.655 317.968 181.535C317.698 181.412 317.485 181.257 317.328 181.07C317.175 180.88 317.098 180.638 317.098 180.345C317.098 180.035 317.183 179.767 317.353 179.54C317.526 179.313 317.753 179.138 318.033 179.015C318.313 178.892 318.613 178.83 318.933 178.83C319.336 178.83 319.705 178.917 320.038 179.09C320.371 179.263 320.62 179.498 320.783 179.795L320.108 180.19C320.051 180.07 319.965 179.965 319.848 179.875C319.731 179.782 319.598 179.708 319.448 179.655C319.298 179.602 319.145 179.573 318.988 179.57C318.795 179.563 318.613 179.588 318.443 179.645C318.276 179.702 318.141 179.788 318.038 179.905C317.938 180.018 317.888 180.16 317.888 180.33C317.888 180.497 317.941 180.623 318.048 180.71C318.158 180.797 318.3 180.867 318.473 180.92C318.65 180.97 318.841 181.028 319.048 181.095C319.351 181.192 319.635 181.303 319.898 181.43C320.161 181.557 320.373 181.715 320.533 181.905C320.696 182.095 320.776 182.33 320.773 182.61C320.773 182.917 320.681 183.185 320.498 183.415C320.315 183.642 320.076 183.815 319.783 183.935C319.493 184.055 319.181 184.108 318.848 184.095ZM321.761 179H322.601V184H321.761V179ZM322.191 178.185C322.058 178.185 321.946 178.142 321.856 178.055C321.766 177.968 321.721 177.86 321.721 177.73C321.721 177.6 321.766 177.492 321.856 177.405C321.946 177.318 322.056 177.275 322.186 177.275C322.316 177.275 322.426 177.318 322.516 177.405C322.606 177.492 322.651 177.6 322.651 177.73C322.651 177.86 322.606 177.968 322.516 178.055C322.429 178.142 322.321 178.185 322.191 178.185ZM328.393 180.89V184H327.553V181.075C327.553 180.822 327.491 180.592 327.368 180.385C327.245 180.178 327.08 180.015 326.873 179.895C326.666 179.772 326.436 179.71 326.183 179.71C325.933 179.71 325.703 179.772 325.493 179.895C325.286 180.015 325.121 180.178 324.998 180.385C324.875 180.592 324.813 180.822 324.813 181.075V184H323.973V179H324.813V179.625C324.99 179.392 325.213 179.207 325.483 179.07C325.753 178.93 326.046 178.86 326.363 178.86C326.736 178.86 327.076 178.952 327.383 179.135C327.693 179.315 327.938 179.558 328.118 179.865C328.301 180.172 328.393 180.513 328.393 180.89Z" fill="#FAFAFA"/>
<path d="M176.15 201.829C175.87 201.829 175.63 201.731 175.429 201.535C175.233 201.334 175.135 201.087 175.135 200.793C175.135 200.513 175.233 200.273 175.429 200.072C175.63 199.871 175.87 199.771 176.15 199.771C176.44 199.771 176.682 199.871 176.878 200.072C177.079 200.273 177.179 200.513 177.179 200.793C177.179 201.087 177.079 201.334 176.878 201.535C176.682 201.731 176.44 201.829 176.15 201.829ZM179.508 201.829C179.228 201.829 178.988 201.731 178.787 201.535C178.591 201.334 178.493 201.087 178.493 200.793C178.493 200.513 178.591 200.273 178.787 200.072C178.988 199.871 179.228 199.771 179.508 199.771C179.798 199.771 180.04 199.871 180.236 200.072C180.437 200.273 180.537 200.513 180.537 200.793C180.537 201.087 180.437 201.334 180.236 201.535C180.04 201.731 179.798 201.829 179.508 201.829ZM182.867 201.829C182.587 201.829 182.346 201.731 182.146 201.535C181.95 201.334 181.852 201.087 181.852 200.793C181.852 200.513 181.95 200.273 182.146 200.072C182.346 199.871 182.587 199.771 182.867 199.771C183.156 199.771 183.399 199.871 183.595 200.072C183.795 200.273 183.896 200.513 183.896 200.793C183.896 201.087 183.795 201.334 183.595 201.535C183.399 201.731 183.156 201.829 182.867 201.829ZM186.225 201.829C185.945 201.829 185.704 201.731 185.504 201.535C185.308 201.334 185.21 201.087 185.21 200.793C185.21 200.513 185.308 200.273 185.504 200.072C185.704 199.871 185.945 199.771 186.225 199.771C186.514 199.771 186.757 199.871 186.953 200.072C187.153 200.273 187.254 200.513 187.254 200.793C187.254 201.087 187.153 201.334 186.953 201.535C186.757 201.731 186.514 201.829 186.225 201.829ZM192.859 195.2L190.024 205.784H188.568L191.403 195.2H192.859ZM195.197 201.829C194.917 201.829 194.677 201.731 194.476 201.535C194.28 201.334 194.182 201.087 194.182 200.793C194.182 200.513 194.28 200.273 194.476 200.072C194.677 199.871 194.917 199.771 195.197 199.771C195.486 199.771 195.729 199.871 195.925 200.072C196.126 200.273 196.226 200.513 196.226 200.793C196.226 201.087 196.126 201.334 195.925 201.535C195.729 201.731 195.486 201.829 195.197 201.829ZM198.555 201.829C198.275 201.829 198.035 201.731 197.834 201.535C197.638 201.334 197.54 201.087 197.54 200.793C197.54 200.513 197.638 200.273 197.834 200.072C198.035 199.871 198.275 199.771 198.555 199.771C198.845 199.771 199.087 199.871 199.283 200.072C199.484 200.273 199.584 200.513 199.584 200.793C199.584 201.087 199.484 201.334 199.283 201.535C199.087 201.731 198.845 201.829 198.555 201.829ZM201.913 201.829C201.633 201.829 201.393 201.731 201.192 201.535C200.996 201.334 200.898 201.087 200.898 200.793C200.898 200.513 200.996 200.273 201.192 200.072C201.393 199.871 201.633 199.771 201.913 199.771C202.203 199.771 202.445 199.871 202.641 200.072C202.842 200.273 202.942 200.513 202.942 200.793C202.942 201.087 202.842 201.334 202.641 201.535C202.445 201.731 202.203 201.829 201.913 201.829ZM205.272 201.829C204.992 201.829 204.751 201.731 204.551 201.535C204.355 201.334 204.257 201.087 204.257 200.793C204.257 200.513 204.355 200.273 204.551 200.072C204.751 199.871 204.992 199.771 205.272 199.771C205.561 199.771 205.804 199.871 206 200.072C206.2 200.273 206.301 200.513 206.301 200.793C206.301 201.087 206.2 201.334 206 201.535C205.804 201.731 205.561 201.829 205.272 201.829Z" fill="#FAFAFA"/>
</g>
<defs>
<clipPath id="clip0_583_12091">
<rect width="380" height="239" rx="24" fill="white"/>
</clipPath>
</defs>
</svg>
