<svg width="83" height="80" viewBox="0 0 83 80" fill="none" xmlns="http://www.w3.org/2000/svg">
<circle cx="42.5" cy="40.5" r="31.5" fill="url(#paint0_linear_583_17705)"/>
<circle cx="79.5" cy="12.5" r="3.5" fill="url(#paint1_linear_583_17705)"/>
<circle cx="8.5" cy="4.5" r="4.5" fill="url(#paint2_linear_583_17705)"/>
<circle cx="4" cy="59" r="2" fill="url(#paint3_linear_583_17705)"/>
<circle cx="73" cy="71" r="1" fill="url(#paint4_linear_583_17705)"/>
<path fill-rule="evenodd" clip-rule="evenodd" d="M48.2509 36.0803H52.8346C52.8346 32.4 50.6294 30.25 46.8932 30.25H37.1094C33.3732 30.25 31.168 32.4 31.168 36.0333V43.9667C31.168 47.6 33.3732 49.75 37.1094 49.75H46.8932C50.6294 49.75 52.8346 47.6 52.8346 43.9667V43.6287H48.2509C46.1236 43.6287 44.3991 41.9473 44.3991 39.8733C44.3991 37.7992 46.1236 36.1178 48.2509 36.1178V36.0803ZM48.2517 37.6952H52.0265C52.4732 37.6952 52.8354 38.0483 52.8354 38.4839V41.2253C52.8302 41.6588 52.4711 42.0089 52.0265 42.014H48.3384C47.2614 42.0281 46.3197 41.3092 46.0754 40.2865C45.9531 39.6516 46.1248 38.9965 46.5446 38.4967C46.9643 37.9969 47.5892 37.7035 48.2517 37.6952ZM48.4159 40.5769H48.7722C49.2296 40.5769 49.6004 40.2154 49.6004 39.7695C49.6004 39.3236 49.2296 38.9621 48.7722 38.9621H48.4159C48.1972 38.9596 47.9865 39.0425 47.8309 39.1925C47.6753 39.3424 47.5878 39.5468 47.5878 39.7601C47.5877 40.2076 47.957 40.5718 48.4159 40.5769ZM36.3011 36.0809H42.4159C42.8733 36.0809 43.2441 35.7195 43.2441 35.2735C43.2441 34.8276 42.8733 34.4661 42.4159 34.4661H36.3011C35.8475 34.4661 35.4782 34.8219 35.473 35.2641C35.4729 35.7116 35.8422 36.0758 36.3011 36.0809Z" fill="white"/>
<circle cx="47" cy="2" r="1" fill="url(#paint5_linear_583_17705)"/>
<circle cx="27.5" cy="78.5" r="1.5" fill="url(#paint6_linear_583_17705)"/>
<circle cx="54.5" cy="76.5" r="0.5" fill="url(#paint7_linear_583_17705)"/>
<circle cx="76" cy="49" r="1" fill="url(#paint8_linear_583_17705)"/>
<circle cx="0.5" cy="33.5" r="0.5" fill="url(#paint9_linear_583_17705)"/>
<defs>
<linearGradient id="paint0_linear_583_17705" x1="74" y1="72" x2="-0.964344" y2="50.2648" gradientUnits="userSpaceOnUse">
<stop stop-color="#7210FF"/>
<stop offset="1" stop-color="#9D59FF"/>
</linearGradient>
<linearGradient id="paint1_linear_583_17705" x1="83" y1="16" x2="74.6706" y2="13.585" gradientUnits="userSpaceOnUse">
<stop stop-color="#7210FF"/>
<stop offset="1" stop-color="#9D59FF"/>
</linearGradient>
<linearGradient id="paint2_linear_583_17705" x1="13" y1="9" x2="2.29081" y2="5.89497" gradientUnits="userSpaceOnUse">
<stop stop-color="#7210FF"/>
<stop offset="1" stop-color="#9D59FF"/>
</linearGradient>
<linearGradient id="paint3_linear_583_17705" x1="6" y1="61" x2="1.24036" y2="59.62" gradientUnits="userSpaceOnUse">
<stop stop-color="#7210FF"/>
<stop offset="1" stop-color="#9D59FF"/>
</linearGradient>
<linearGradient id="paint4_linear_583_17705" x1="74" y1="72" x2="71.6202" y2="71.31" gradientUnits="userSpaceOnUse">
<stop stop-color="#7210FF"/>
<stop offset="1" stop-color="#9D59FF"/>
</linearGradient>
<linearGradient id="paint5_linear_583_17705" x1="48" y1="3" x2="45.6202" y2="2.30999" gradientUnits="userSpaceOnUse">
<stop stop-color="#7210FF"/>
<stop offset="1" stop-color="#9D59FF"/>
</linearGradient>
<linearGradient id="paint6_linear_583_17705" x1="29" y1="80" x2="25.4303" y2="78.965" gradientUnits="userSpaceOnUse">
<stop stop-color="#7210FF"/>
<stop offset="1" stop-color="#9D59FF"/>
</linearGradient>
<linearGradient id="paint7_linear_583_17705" x1="55" y1="77" x2="53.8101" y2="76.655" gradientUnits="userSpaceOnUse">
<stop stop-color="#7210FF"/>
<stop offset="1" stop-color="#9D59FF"/>
</linearGradient>
<linearGradient id="paint8_linear_583_17705" x1="77" y1="50" x2="74.6202" y2="49.31" gradientUnits="userSpaceOnUse">
<stop stop-color="#7210FF"/>
<stop offset="1" stop-color="#9D59FF"/>
</linearGradient>
<linearGradient id="paint9_linear_583_17705" x1="1" y1="34" x2="-0.18991" y2="33.655" gradientUnits="userSpaceOnUse">
<stop stop-color="#7210FF"/>
<stop offset="1" stop-color="#9D59FF"/>
</linearGradient>
</defs>
</svg>
