<svg width="14" height="14" viewBox="0 0 14 14" fill="none" xmlns="http://www.w3.org/2000/svg">
<path fill-rule="evenodd" clip-rule="evenodd" d="M13.6663 4.28065V9.72732C13.6663 12.0807 12.1523 13.6673 9.89301 13.6673H4.11301C1.85301 13.6673 0.333008 12.0807 0.333008 9.72732V4.28065C0.333008 1.92065 1.85301 0.333984 4.11301 0.333984H9.89301C12.1523 0.333984 13.6663 1.92065 13.6663 4.28065ZM6.49967 5.48732V9.72065C6.49967 10.0007 6.72634 10.2207 6.99967 10.2207C7.27967 10.2207 7.49967 10.0007 7.49967 9.72065V5.48732L9.14634 7.14065C9.23967 7.23398 9.37301 7.28732 9.49967 7.28732C9.62567 7.28732 9.75301 7.23398 9.85301 7.14065C10.0463 6.94732 10.0463 6.62732 9.85301 6.43398L7.35301 3.92065C7.16634 3.73398 6.83301 3.73398 6.64634 3.92065L4.14634 6.43398C3.95301 6.62732 3.95301 6.94732 4.14634 7.14065C4.34634 7.33398 4.65967 7.33398 4.85967 7.14065L6.49967 5.48732Z" fill="#4ADE80"/>
</svg>
