<svg width="18" height="25" viewBox="0 0 18 25" fill="none" xmlns="http://www.w3.org/2000/svg">
<path fill-rule="evenodd" clip-rule="evenodd" d="M8.8188 23.2725C4.51168 23.2725 0.833496 22.6023 0.833496 19.918C0.833496 17.2338 4.48834 14.7559 8.8188 14.7559C13.1259 14.7559 16.8041 17.2098 16.8041 19.894C16.8041 22.5772 13.1493 23.2725 8.8188 23.2725Z" stroke="#212121" stroke-width="1.5" stroke-linecap="round" stroke-linejoin="round"/>
<path fill-rule="evenodd" clip-rule="evenodd" d="M8.81041 11.0367C11.6369 11.0367 13.9278 8.74578 13.9278 5.91927C13.9278 3.09275 11.6369 0.800781 8.81041 0.800781C5.98389 0.800781 3.69192 3.09275 3.69192 5.91927C3.68238 8.73624 5.95738 11.0271 8.77435 11.0367C8.78708 11.0367 8.79874 11.0367 8.81041 11.0367Z" stroke="#212121" stroke-width="1.5" stroke-linecap="round" stroke-linejoin="round"/>
</svg>
