<svg width="20" height="24" viewBox="0 0 20 24" fill="none" xmlns="http://www.w3.org/2000/svg">
<path d="M16.5003 2.66683V1.50016C16.5003 0.858496 15.9753 0.333496 15.3337 0.333496H1.33366C0.691992 0.333496 0.166992 0.858496 0.166992 1.50016V6.16683C0.166992 6.8085 0.691992 7.3335 1.33366 7.3335H15.3337C15.9753 7.3335 16.5003 6.8085 16.5003 6.16683V5.00016H17.667V9.66683H7.16699C6.52533 9.66683 6.00033 10.1918 6.00033 10.8335V22.5002C6.00033 23.1418 6.52533 23.6668 7.16699 23.6668H9.50033C10.142 23.6668 10.667 23.1418 10.667 22.5002V12.0002H18.8337C19.4753 12.0002 20.0003 11.4752 20.0003 10.8335V3.8335C20.0003 3.19183 19.4753 2.66683 18.8337 2.66683H16.5003Z" fill="#1A96F0"/>
</svg>
