<svg width="25" height="24" viewBox="0 0 25 24" fill="none" xmlns="http://www.w3.org/2000/svg">
<path d="M23.828 21.6718L22.1713 23.3285C21.9527 23.5458 21.657 23.6678 21.3488 23.6678C21.0406 23.6678 20.7449 23.5458 20.5263 23.3285L6.66629 9.49183C6.2869 9.60174 5.89456 9.66059 5.49962 9.66683C4.75681 9.6663 4.02485 9.48846 3.36461 9.14809C2.70437 8.80772 2.13491 8.31466 1.7036 7.7099C1.27228 7.10513 0.991552 6.40615 0.884764 5.67105C0.777975 4.93595 0.848208 4.18598 1.08962 3.4835L4.05296 6.44683L4.67129 5.8285L6.32796 4.17183L6.94629 3.5535L3.98296 0.590163C4.68544 0.348748 5.43541 0.278515 6.17051 0.385304C6.90561 0.492092 7.60459 0.772815 8.20935 1.20414C8.81412 1.63545 9.30718 2.20491 9.64755 2.86515C9.98792 3.52539 10.1658 4.25735 10.1663 5.00016C10.1601 5.3951 10.1012 5.78744 9.99129 6.16683L23.828 20.0268C24.0452 20.2454 24.1672 20.5411 24.1672 20.8493C24.1672 21.1575 24.0452 21.4532 23.828 21.6718ZM1.17129 20.0268C0.953997 20.2454 0.832031 20.5411 0.832031 20.8493C0.832031 21.1575 0.953997 21.4532 1.17129 21.6718L2.82796 23.3285C3.04655 23.5458 3.34224 23.6678 3.65046 23.6678C3.95867 23.6678 4.25437 23.5458 4.47296 23.3285L10.8546 16.9585L7.55296 13.6568L1.17129 20.0268ZM21.833 0.333496L17.1663 2.66683V5.00016L14.6346 7.53183L16.968 9.86516L19.4996 7.3335H21.833L24.1663 2.66683L21.833 0.333496Z" fill="#FF981F"/>
</svg>
