<svg width="14" height="14" viewBox="0 0 14 14" fill="none" xmlns="http://www.w3.org/2000/svg">
<path opacity="0.4" d="M7.65054 1.07558L9.13486 4.05843C9.24422 4.27454 9.45293 4.42462 9.69365 4.45797L13.0277 4.94355C13.2224 4.97089 13.3991 5.07361 13.5185 5.23036C13.6365 5.3851 13.6872 5.5812 13.6585 5.77397C13.6352 5.93405 13.5598 6.08213 13.4445 6.19552L11.0286 8.53737C10.8519 8.70079 10.7719 8.94291 10.8146 9.1797L11.4093 12.472C11.4727 12.8696 11.2093 13.2444 10.8146 13.3198C10.6519 13.3458 10.4852 13.3185 10.3385 13.2438L7.36448 11.6943C7.14377 11.5829 6.88304 11.5829 6.66233 11.6943L3.68836 13.2438C3.32295 13.4379 2.87018 13.3058 2.66681 12.9456C2.59146 12.8022 2.56478 12.6388 2.58946 12.4794L3.18425 9.18637C3.22693 8.95025 3.14624 8.70679 2.9702 8.54338L0.554352 6.20285C0.266957 5.92538 0.258289 5.46848 0.535015 5.181C0.541016 5.175 0.547684 5.16833 0.554352 5.16166C0.669044 5.04493 0.819743 4.97089 0.982444 4.95155L4.31649 4.4653C4.55654 4.43129 4.76526 4.28254 4.87528 4.0651L6.30625 1.07558C6.43361 0.81945 6.69767 0.660035 6.9844 0.666705H7.07375C7.32247 0.696721 7.53919 0.850799 7.65054 1.07558Z" fill="#FFD300"/>
<path d="M6.99435 11.6112C6.86521 11.6153 6.73941 11.6499 6.62625 11.712L3.66682 13.2579C3.30471 13.4307 2.87138 13.2966 2.66836 12.9503C2.59315 12.8089 2.56586 12.6468 2.59115 12.488L3.18224 9.20194C3.22217 8.96308 3.1423 8.72021 2.96857 8.55207L0.551633 6.21215C0.264742 5.93126 0.259417 5.47021 0.540317 5.18264C0.544311 5.17864 0.547639 5.1753 0.551633 5.17197C0.666122 5.05854 0.813894 4.98381 0.972982 4.96046L4.30983 4.46939C4.55146 4.4387 4.76113 4.28791 4.86763 4.06906L6.31806 1.04192C6.45585 0.797716 6.72011 0.652263 6.99967 0.667609C6.99435 0.865772 6.99435 11.4765 6.99435 11.6112Z" fill="#FFD300"/>
</svg>
