<svg width="186" height="180" viewBox="0 0 186 180" fill="none" xmlns="http://www.w3.org/2000/svg">
<circle cx="95.5" cy="90.5" r="70.5" fill="#F95353"/>
<circle cx="178.467" cy="27.5" r="7.5" fill="#F95353"/>
<circle cx="20.0332" cy="10" r="10" fill="#F95353"/>
<circle cx="10.0332" cy="133" r="5" fill="#F95353"/>
<circle cx="165.533" cy="160.5" r="2.5" fill="#F95353"/>
<path fill-rule="evenodd" clip-rule="evenodd" d="M94.8319 114.871C95.1041 115.013 95.4085 115.085 95.713 115.083C96.0174 115.081 96.3193 115.006 96.594 114.861L105.365 110.173C107.852 108.847 109.8 107.364 111.32 105.638C114.624 101.877 116.428 97.0779 116.396 92.1288L116.292 75.8039C116.282 73.9236 115.047 72.2458 113.22 71.6359L96.9034 66.1613C95.9208 65.8286 94.8443 65.8358 93.8791 66.1781L77.6239 71.848C75.8074 72.482 74.5947 74.1719 74.6046 76.0546L74.7085 92.3675C74.7407 97.3238 76.6067 102.102 79.9652 105.824C81.4996 107.526 83.4647 108.987 85.9792 110.291L94.8319 114.871ZM92.51 95.6843C92.8763 96.0362 93.3514 96.2098 93.8266 96.205C94.3018 96.2026 94.7745 96.0242 95.1358 95.6674L104.721 86.2177C105.441 85.5065 105.434 84.3639 104.706 83.6624C103.976 82.9609 102.801 82.9657 102.08 83.6768L93.7994 91.8393L90.4088 88.5801C89.6787 87.8786 88.5056 87.8858 87.7829 88.597C87.0627 89.3081 87.0702 90.4508 87.8002 91.1523L92.51 95.6843Z" fill="white"/>
<circle cx="106.533" cy="4.5" r="2.5" fill="#F95353"/>
<circle cx="62.5332" cy="176.5" r="3.5" fill="#F95353"/>
<circle cx="122.033" cy="171" r="1" fill="#F95353"/>
<circle cx="170.533" cy="110.5" r="2.5" fill="#F95353"/>
<circle cx="1.0332" cy="75" r="1" fill="#F95353"/>
</svg>
