<svg width="28" height="28" viewBox="0 0 28 28" fill="none" xmlns="http://www.w3.org/2000/svg">
<path fill-rule="evenodd" clip-rule="evenodd" d="M0.666992 14.0199C0.666992 6.996 6.28033 0.666504 14.027 0.666504C21.6003 0.666504 27.3337 6.87582 27.3337 13.9798C27.3337 22.2188 20.6137 27.3332 14.0003 27.3332C11.8137 27.3332 9.38699 26.7456 7.44033 25.5972C6.76033 25.1833 6.18699 24.8762 5.45366 25.1165L2.76033 25.9177C2.08033 26.1314 1.46699 25.5972 1.66699 24.8762L2.56033 21.885C2.70699 21.471 2.68033 21.0304 2.46699 20.6832C1.32033 18.5734 0.666992 16.2632 0.666992 14.0199ZM12.267 14.0199C12.267 14.968 13.027 15.7291 13.9737 15.7424C14.9203 15.7424 15.6803 14.968 15.6803 14.0332C15.6803 13.0851 14.9203 12.324 13.9737 12.324C13.0403 12.3106 12.267 13.0851 12.267 14.0199ZM18.4137 14.0332C18.4137 14.968 19.1737 15.7424 20.1203 15.7424C21.067 15.7424 21.827 14.968 21.827 14.0332C21.827 13.0851 21.067 12.324 20.1203 12.324C19.1737 12.324 18.4137 13.0851 18.4137 14.0332ZM7.82699 15.7425C6.89366 15.7425 6.12033 14.968 6.12033 14.0332C6.12033 13.0851 6.88033 12.324 7.82699 12.324C8.77366 12.324 9.53366 13.0851 9.53366 14.0332C9.53366 14.968 8.77366 15.7291 7.82699 15.7425Z" fill="#FF2D2D"/>
</svg>
