<svg width="74" height="82" viewBox="0 0 74 82" fill="none" xmlns="http://www.w3.org/2000/svg">
<path d="M70.3332 78.5C70.3332 72.6851 70.3332 69.7777 69.6155 67.4119C67.9997 62.0852 63.8313 57.9168 58.5046 56.301C56.1388 55.5833 53.2314 55.5833 47.4165 55.5833H26.5832C20.7683 55.5833 17.8609 55.5833 15.4951 56.301C10.1684 57.9168 6 62.0852 4.38417 67.4119C3.6665 69.7777 3.6665 72.6851 3.6665 78.5M55.7498 22.25C55.7498 32.6053 47.3552 41 36.9998 41C26.6445 41 18.2498 32.6053 18.2498 22.25C18.2498 11.8947 26.6445 3.5 36.9998 3.5C47.3552 3.5 55.7498 11.8947 55.7498 22.25Z" stroke="#212121" stroke-width="6" stroke-linecap="round" stroke-linejoin="round"/>
</svg>
